<svg width="52" height="52" viewBox="0 0 52 52" fill="none" xmlns="http://www.w3.org/2000/svg">
<path d="M23.956 9.21295C22.8234 15.1499 22.7016 14.7686 21.3501 20.0047H30.6498C29.2983 14.7685 29.1766 15.1498 28.0439 9.21295H23.956Z" fill="#E1D3CE"/>
<path d="M23.2005 6.25087C23.4066 7.06448 23.6427 8.00678 23.9562 9.21294H28.0442C28.3577 8.00688 28.5937 7.06448 28.7998 6.25087C29.2459 4.48988 27.9151 2.78027 26.0985 2.78027H25.9018C24.0851 2.78027 22.7544 4.48998 23.2005 6.25087V6.25087Z" fill="#9E9797"/>
<path d="M32.0401 23.2579H19.9602C19.6514 23.2579 19.3775 23.0599 19.2806 22.7668L18.6785 20.9448C18.5255 20.4818 18.8704 20.0046 19.3581 20.0046H32.6422C33.1299 20.0046 33.4747 20.4818 33.3217 20.9448L32.7197 22.7668C32.6228 23.0599 32.3487 23.2579 32.0401 23.2579Z" fill="#9E9797"/>
<path d="M36.2613 36.1896H15.7389C15.438 36.1896 15.1693 36.0014 15.0664 35.7187L14.4034 33.8967C14.2336 33.4299 14.5792 32.9363 15.0759 32.9363H36.9242C37.421 32.9363 37.7666 33.4299 37.5968 33.8967L36.9338 35.7187C36.8309 36.0014 36.5622 36.1896 36.2613 36.1896Z" fill="#9E9797"/>
<path d="M20.4852 46.2315C20.7919 43.4169 23.1689 41.2849 26 41.2849C28.8313 41.2849 31.2081 43.4169 31.5149 46.2315L32.0604 51.2383H40.2508L35.5631 36.1897H16.4369L11.7493 51.2383H19.9396L20.4852 46.2315Z" fill="#E1D3CE"/>
<path d="M29.2398 30.8575C29.0597 29.0456 27.6632 27.6732 25.9999 27.6732C24.3366 27.6732 22.9401 29.0456 22.7599 30.8575L22.4394 32.9364H17.6277L20.3816 23.249H31.618L34.3719 32.9364H29.5602L29.2398 30.8575Z" fill="#E1D3CE"/>
<path d="M28.0439 9.21295H24.9971C26.1298 15.1499 26.2515 14.7685 27.603 20.0047H30.6498C29.2983 14.7685 29.1767 15.1498 28.0439 9.21295V9.21295Z" fill="#CDBFBA"/>
<path d="M26.0984 2.78027H25.9017C25.3752 2.78027 24.89 2.92459 24.4766 3.17139C25.4896 3.7762 26.0696 5.00023 25.7528 6.25087C25.5467 7.06448 25.3106 8.00678 24.9972 9.21284H28.044C28.3576 8.00678 28.5936 7.06438 28.7997 6.25087C29.2457 4.48998 27.915 2.78027 26.0984 2.78027Z" fill="#766E6E"/>
<path d="M32.6422 20.0046H29.5953C30.083 20.0046 30.4278 20.4818 30.2748 20.9448L29.6727 22.7668C29.5758 23.0599 29.3019 23.2579 28.9932 23.2579H32.04C32.3488 23.2579 32.6227 23.0599 32.7196 22.7668L33.3217 20.9448C33.4747 20.4818 33.1299 20.0046 32.6422 20.0046Z" fill="#766E6E"/>
<path d="M36.9242 32.9363H33.8774C34.374 32.9363 34.7197 33.4299 34.5499 33.8967L33.8869 35.7187C33.784 36.0014 33.5153 36.1896 33.2144 36.1896H36.2612C36.5621 36.1896 36.8309 36.0014 36.9338 35.7187L37.5968 33.8967C37.7666 33.4299 37.421 32.9363 36.9242 32.9363Z" fill="#766E6E"/>
<path d="M35.5632 36.1897H32.5164L37.204 51.2383H40.2508L35.5632 36.1897Z" fill="#CDBFBA"/>
<path d="M31.6182 23.249H28.5713L31.3253 32.9363H34.3721L31.6182 23.249Z" fill="#CDBFBA"/>
<path d="M9.8187 43.3952C9.8187 46.0372 8.13256 47.0934 6.05266 47.0934C3.97276 47.0934 2.28662 46.0372 2.28662 43.3952C2.28662 40.7532 3.37232 34.8996 6.05266 34.8996C8.52936 34.8995 9.8187 40.7532 9.8187 43.3952Z" fill="#6FD7A3"/>
<path d="M49.7579 43.3952C49.7579 46.0372 48.0718 47.0934 45.9919 47.0934C43.912 47.0934 42.2258 46.0372 42.2258 43.3952C42.2258 40.7532 43.3115 34.8996 45.9919 34.8996C48.4686 34.8995 49.7579 40.7532 49.7579 43.3952Z" fill="#6FD7A3"/>
<path d="M6.05282 34.8995C5.73259 34.8995 5.43542 34.9839 5.15988 35.1355C6.42535 37.0035 7.07667 40.502 7.07667 42.3795C7.07667 45.0216 5.39063 46.0777 3.31063 46.0777C3.28138 46.0777 3.25254 46.0768 3.22339 46.0763C3.91361 46.7818 4.92497 47.0933 6.05282 47.0933C8.13272 47.0933 9.81886 46.0372 9.81886 43.3951C9.81876 40.7532 8.52952 34.8995 6.05282 34.8995V34.8995Z" fill="#3EC3A4"/>
<path d="M45.9919 34.8995C45.6717 34.8995 45.3745 34.9839 45.099 35.1355C46.3645 37.0035 47.0158 40.502 47.0158 42.3795C47.0158 45.0216 45.3296 46.0777 43.2497 46.0777C43.2205 46.0777 43.1916 46.0768 43.1626 46.0763C43.8528 46.7818 44.8641 47.0933 45.9919 47.0933C48.0718 47.0933 49.758 46.0372 49.758 43.3951C49.758 40.7532 48.4686 34.8995 45.9919 34.8995Z" fill="#3EC3A4"/>
<path d="M51.2383 50.4766H46.7536V47.8093C47.7102 47.693 48.5309 47.3537 49.1554 46.8091C49.7778 46.2665 50.5196 45.2336 50.5196 43.3951C50.5196 40.6708 49.2168 34.1378 45.9919 34.1378C42.6042 34.1378 41.4641 40.4951 41.4641 43.3951C41.4641 45.2336 42.2059 46.2665 42.8283 46.8091C43.4528 47.3537 44.2735 47.6931 45.2301 47.8093V50.4766H40.8113L36.5867 36.9143C37.069 36.8045 37.476 36.4563 37.6495 35.9791L38.3124 34.1573C38.4772 33.7047 38.4105 33.1991 38.1344 32.8047C37.8581 32.4102 37.4057 32.1747 36.9242 32.1747H34.9475L32.5981 23.9104C32.9901 23.7506 33.3039 23.4262 33.4426 23.0059L34.0449 21.1838C34.1931 20.7349 34.1163 20.2381 33.8393 19.8549C33.5623 19.4718 33.1148 19.2429 32.642 19.2429H31.239C30.8979 17.9372 30.6348 16.9889 30.4224 16.223C29.8814 14.2723 29.5798 13.1832 28.8245 9.23802C29.0573 8.3395 29.2466 7.59058 29.4144 6.92717L29.5381 6.43805C29.8089 5.36941 29.5758 4.2575 28.8988 3.38762C28.3602 2.69547 27.6037 2.23925 26.7618 2.08122V0.761719C26.7618 0.341047 26.4209 0 26.0001 0C25.5793 0 25.2384 0.341047 25.2384 0.761719V2.08112C24.3965 2.23915 23.64 2.69537 23.1014 3.38762C22.4244 4.2575 22.1914 5.3693 22.4621 6.43805L22.5849 6.92362C22.7528 7.58804 22.9424 8.33798 23.1758 9.23812C22.4204 13.1834 22.1187 14.2725 21.5778 16.2232C21.3655 16.9885 21.1023 17.9376 20.7611 19.243H19.358C18.8852 19.243 18.4377 19.4719 18.1606 19.8551C17.8837 20.2383 17.807 20.7351 17.9553 21.184L18.5574 23.006C18.6963 23.4263 19.01 23.7507 19.402 23.9105L17.0525 32.1748H15.0759C14.5944 32.1748 14.1421 32.4102 13.8658 32.8047C13.5896 33.1992 13.5229 33.7047 13.6876 34.1574L14.3506 35.9792C14.5241 36.4564 14.931 36.8045 15.4132 36.9144L11.1887 50.4766H6.81444V47.8093C7.77105 47.693 8.59178 47.3537 9.21629 46.8091C9.83866 46.2665 10.5805 45.2336 10.5805 43.3951C10.5805 40.6708 9.27763 34.1378 6.05272 34.1378C2.6651 34.1378 1.52496 40.4951 1.52496 43.3951C1.52496 45.2336 2.26677 46.2665 2.88915 46.8091C3.51366 47.3537 4.33438 47.6931 5.291 47.8093V50.4766H0.761719C0.340945 50.4766 0 50.8176 0 51.2383C0 51.659 0.340945 52 0.761719 52H51.2383C51.6591 52 52 51.659 52 51.2383C52 50.8176 51.6591 50.4766 51.2383 50.4766ZM42.9875 43.3951C42.9875 40.6686 44.1281 35.6612 45.9919 35.6612C47.5921 35.6612 48.9962 40.4815 48.9962 43.3951C48.9962 45.8222 47.3625 46.3316 45.9919 46.3316C44.6213 46.3317 42.9875 45.8222 42.9875 43.3951ZM3.0484 43.3951C3.0484 40.6686 4.18895 35.6612 6.05272 35.6612C7.65294 35.6612 9.05704 40.4815 9.05704 43.3951C9.05704 45.8222 7.4233 46.3316 6.05272 46.3316C4.68213 46.3316 3.0484 45.8222 3.0484 43.3951V43.3951ZM24.3035 4.32321C24.6899 3.82677 25.2724 3.54199 25.9017 3.54199H26.0984C26.7276 3.54199 27.3102 3.82667 27.6965 4.32311C28.0828 4.81945 28.2157 5.45391 28.0612 6.06379L27.9373 6.55383C27.7958 7.11334 27.6394 7.73236 27.4543 8.45122H24.5457C24.3601 7.73084 24.2034 7.1107 24.0617 6.55027L23.9387 6.06389C23.7843 5.45401 23.9173 4.81955 24.3035 4.32321V4.32321ZM25.3463 20.7664C25.7671 20.7664 26.1081 20.4253 26.1081 20.0047C26.1081 19.584 25.767 19.2429 25.3463 19.2429H22.3359C22.6239 18.1508 22.8464 17.3485 23.0455 16.6303C23.5761 14.7172 23.8807 13.6187 24.5853 9.97466H27.4145C28.1191 13.6186 28.4238 14.7171 28.9543 16.6301C29.1535 17.3489 29.376 18.1512 29.6638 19.2429H28.393C27.9722 19.2429 27.6313 19.584 27.6313 20.0047C27.6313 20.4253 27.9722 20.7664 28.393 20.7664H32.5781L32.0064 22.4962H19.9933L19.4217 20.7664H25.3463ZM20.9546 24.0196H31.0455L33.3638 32.1746H30.2137L29.9958 30.7608C29.7674 28.5649 28.0531 26.9115 26 26.9115C23.947 26.9115 22.2327 28.565 22.0043 30.7608L21.7863 32.1746H18.6363L20.9546 24.0196ZM28.6723 32.1746H23.3277L23.5129 30.9735C23.515 30.96 23.5168 30.9464 23.5181 30.9328C23.6598 29.5088 24.7267 28.4349 26.0001 28.4349C27.2734 28.4349 28.3405 29.5088 28.4822 30.9328C28.4835 30.9464 28.4852 30.96 28.4874 30.9734L28.6723 32.1746ZM20.7888 50.4766L21.2424 46.314C21.5074 43.8812 23.5529 42.0467 26.0001 42.0467C28.4473 42.0467 30.4925 43.8812 30.7576 46.314L31.2113 50.4766H20.7888ZM32.7436 50.4766L32.272 46.149C31.9225 42.9417 29.2261 40.5232 25.9999 40.5232C22.7737 40.5232 20.0774 42.9417 19.7278 46.149L19.2564 50.4766H12.7843L16.9934 36.9641C16.9948 36.9598 16.9955 36.9555 16.9967 36.9514H19.7422C20.163 36.9514 20.5039 36.6103 20.5039 36.1897C20.5039 35.769 20.163 35.4279 19.7422 35.4279H15.771L15.1415 33.6981H36.8582L36.2289 35.4279H22.7891C22.3683 35.4279 22.0274 35.769 22.0274 36.1897C22.0274 36.6103 22.3683 36.9514 22.7891 36.9514H35.0026L39.2157 50.4766H32.7436Z" fill="black"/>
</svg>
