<svg width="52" height="52" viewBox="0 0 52 52" fill="none" xmlns="http://www.w3.org/2000/svg">
<g clip-path="url(#clip0_637_9087)">
<path d="M3.28586 13.0272C4.40254 11.9105 6.37387 10.9686 7.6498 10.4348C8.34967 10.142 9.15902 10.3719 9.60021 10.9897L14.7436 18.1921C15.2522 18.9042 15.1057 19.8907 14.4123 20.4233L10.8805 23.1361C7.78051 26.5769 11.1054 31.561 13.6227 34.0784L17.9217 38.3774C20.4391 40.8947 25.4231 44.2195 28.8639 41.1195L31.5773 37.588C32.1099 36.8948 33.0963 36.7483 33.8083 37.2569L41.0102 42.3998C41.6281 42.8411 41.858 43.6503 41.5652 44.3503C41.0313 45.6262 40.0895 47.5977 38.9728 48.7142C36.6164 51.0706 27.3963 55.1785 14.3563 42.1384L9.86173 37.6437C-3.17839 24.6036 0.929513 15.3836 3.28586 13.0272V13.0272Z" fill="#80DEEA"/>
<path d="M6.55387 10.9897L11.6973 18.1921C12.2058 18.9042 12.0594 19.8907 11.366 20.4233L7.83417 23.1361C4.73418 26.5769 8.05903 31.561 10.5764 34.0784L14.8754 38.3774C16.9775 40.4795 20.7997 43.1437 24.007 42.1606C21.6703 41.5679 19.3814 39.8371 17.9218 38.3774L13.6227 34.0784C11.1054 31.561 7.78065 26.577 10.8805 23.1361L14.4124 20.4233C15.1057 19.8907 15.2522 18.9042 14.7437 18.1921L9.60024 10.9897C9.15895 10.3718 8.3497 10.1419 7.64984 10.4348C7.31153 10.5764 6.92377 10.7473 6.5166 10.9419C6.52899 10.9579 6.54209 10.9731 6.55387 10.9897V10.9897Z" fill="#4DD0E1"/>
<path d="M41.0103 42.3997L33.8084 37.2568C33.0964 36.7482 32.11 36.8947 31.5774 37.5878L31.4528 37.75L37.9639 42.3997C38.5818 42.841 38.8116 43.6502 38.5188 44.3502C37.9849 45.6261 37.043 47.5974 35.9264 48.7141C35.0023 49.6382 33.0222 50.8317 30.1702 51.1545C34.6721 51.6345 37.7488 49.9381 38.9729 48.7141C40.0895 47.5974 41.0314 45.6261 41.5653 44.3502C41.8581 43.6502 41.6282 42.841 41.0103 42.3997Z" fill="#4DD0E1"/>
<path d="M4.65308 11.9637C5.65692 11.3203 6.80508 10.7882 7.64947 10.435C8.35026 10.142 9.15879 10.3718 9.60039 10.99L14.743 18.192C15.2521 18.9035 15.1056 19.8902 14.412 20.423L11.8745 22.3718C8.88376 18.6731 6.43377 15.1273 4.65308 11.9637V11.9637Z" fill="#F76C57"/>
<path d="M14.7432 18.192L9.60055 10.99C9.15895 10.3718 8.35041 10.142 7.64963 10.435C7.31123 10.5765 6.92366 10.7473 6.5166 10.942C6.52909 10.9581 6.5423 10.9733 6.55418 10.99L11.6968 18.192C12.2059 18.9035 12.0595 19.8902 11.3658 20.423L10.7213 20.918C11.0964 21.3996 11.4806 21.8843 11.8747 22.3718L14.4123 20.423C15.1058 19.8901 15.2523 18.9035 14.7432 18.192V18.192Z" fill="#E7387F"/>
<path d="M33.8081 37.2569L41.0101 42.3995C41.6283 42.8411 41.8581 43.6496 41.5651 44.3504C41.2104 45.1992 40.6754 46.3545 40.0278 47.3627C36.8633 45.5769 33.3198 43.1233 29.6233 40.1319L31.577 37.5879C32.1099 36.8942 33.0965 36.7478 33.8081 37.2569Z" fill="#F76C57"/>
<path d="M41.0099 42.3995L33.8079 37.2569C33.0964 36.7477 32.1098 36.8943 31.577 37.5879L31.4524 37.7502L37.9636 42.3995C38.5818 42.8411 38.8116 43.6496 38.5186 44.3504C38.3177 44.831 38.0589 45.41 37.7548 46.0049C38.5308 46.4922 39.29 46.9463 40.0277 47.3626C40.6754 46.3545 41.2103 45.1992 41.5651 44.3504C41.858 43.6496 41.6282 42.8411 41.0099 42.3995V42.3995Z" fill="#E7387F"/>
<path d="M47.035 5.59682C41.0325 -0.743724 31.022 -0.848232 24.8874 5.2833C20.2997 9.86864 19.201 16.6206 21.5919 22.2433C22.2024 23.679 22.3 25.2808 21.8253 26.7669L20.5946 30.619C20.4399 31.1033 20.897 31.5602 21.3817 31.4056L25.2385 30.1746C26.724 29.7006 28.3252 29.7986 29.7604 30.4083C35.3771 32.7947 42.1202 31.7041 46.7077 27.1371C52.6163 21.2549 52.7667 11.6513 47.035 5.59682V5.59682Z" fill="#FBF2DF"/>
<path d="M47.035 5.59682C43.6037 1.97236 38.863 0.386763 34.2851 0.837701C37.85 1.1888 41.3161 2.7744 43.9881 5.59682C49.7199 11.6514 49.5694 21.2549 43.6608 27.1371C41.036 29.7502 37.7054 31.223 34.2839 31.5597C38.7184 31.9968 43.3057 30.5238 46.7077 27.1371C52.6163 21.2549 52.7667 11.6513 47.035 5.59682V5.59682Z" fill="#F2E5CE"/>
<path d="M41.1431 8.48552L26.7684 22.8601C26.459 23.1695 25.9299 22.9504 25.9299 22.5127V12.977C25.9299 12.5394 26.459 12.3203 26.7684 12.6297L28.7899 14.6512C28.9507 14.8119 29.2114 14.8119 29.3722 14.6512L38.3768 5.64654C38.5303 5.49308 38.7798 5.49501 38.9308 5.65101L41.1474 7.94023C41.2951 8.09278 41.2931 8.33541 41.1431 8.48552V8.48552Z" fill="#FFD740"/>
<path d="M30.1864 24.1948L44.5609 9.82016C44.8704 9.5107 45.3994 9.72987 45.3994 10.1675V19.7032C45.3994 20.1408 44.8704 20.3599 44.5609 20.0505L42.5394 18.029C42.3787 17.8683 42.118 17.8683 41.9572 18.029L32.9525 27.0337C32.7991 27.1871 32.5495 27.1852 32.3985 27.0292L30.1819 24.74C30.0343 24.5875 30.0363 24.3448 30.1864 24.1948V24.1948Z" fill="#F76C57"/>
<path d="M41.6952 7.40855L39.4787 5.11913C39.2626 4.896 38.9723 4.77158 38.6616 4.76904H38.6521C38.345 4.76904 38.0565 4.88848 37.839 5.10593L29.0824 13.8637L27.3085 12.0896C26.9488 11.7299 26.4128 11.6234 25.9432 11.8179C25.4732 12.0125 25.1697 12.4669 25.1697 12.9755V22.5119C25.1697 23.0205 25.4732 23.4748 25.9431 23.6694C26.0991 23.7341 26.2622 23.7654 26.4238 23.7654C26.7492 23.7654 27.0682 23.638 27.3084 23.3978L41.6822 9.02238C42.1236 8.58089 42.1294 7.85695 41.6952 7.40855V7.40855ZM26.693 21.8587V13.6286L28.2526 15.1884C28.4742 15.41 28.7688 15.5321 29.0823 15.5321C29.3957 15.5321 29.6903 15.41 29.9119 15.1884L38.6479 6.45132L40.3453 8.2046L26.693 21.8587Z" fill="black"/>
<path d="M29.6358 25.2691L31.8522 27.5583C32.0683 27.7816 32.3586 27.906 32.6694 27.9086H32.6789C32.9861 27.9086 33.2746 27.789 33.492 27.5716L42.2486 18.814L44.0225 20.5881C44.3821 20.9476 44.9181 21.0541 45.3878 20.8596C45.8577 20.665 46.1612 20.2107 46.1612 19.702V10.1657C46.1612 9.65709 45.8577 9.2027 45.3878 9.00811C44.9178 8.81351 44.3821 8.92005 44.0225 9.27968L29.6489 23.6553C29.2075 24.0968 29.2016 24.8208 29.6358 25.2691V25.2691ZM44.6379 10.8191V19.0491L43.0783 17.4894C42.8567 17.2678 42.5621 17.1457 42.2486 17.1457C41.9352 17.1457 41.6406 17.2678 41.419 17.4894L32.683 26.2264L30.9856 24.4732L44.6379 10.8191Z" fill="black"/>
<path d="M41.4536 41.7801L39.7137 40.5374C39.3713 40.2929 38.8956 40.3722 38.6511 40.7147C38.4067 41.0569 38.486 41.5327 38.8284 41.7773L40.5684 43.02C40.8987 43.2559 41.0199 43.6821 40.8632 44.0567C40.5069 44.9083 40.1346 45.675 39.761 46.3313C36.9532 44.6914 33.8399 42.5221 30.6824 40.0047L32.1827 38.0521C32.4667 37.6822 32.9869 37.6054 33.3669 37.8767L36.189 39.8922C36.5314 40.1368 37.007 40.0573 37.2514 39.715C37.4959 39.3726 37.4165 38.8969 37.0742 38.6523L34.2521 36.6368C33.2007 35.8859 31.761 36.1 30.9745 37.1238L28.3053 40.5982C27.0136 41.7282 25.3366 41.9116 23.3193 41.1433C21.0552 40.2807 19.1683 38.5449 18.4622 37.8387L14.1635 33.5394C13.4573 32.8332 11.7218 30.9462 10.8594 28.6818C10.0908 26.6642 10.2743 24.987 11.4043 23.6952L14.8786 21.0264C15.9026 20.2397 16.1165 18.7997 15.3657 17.7482L10.2226 10.5453C9.57085 9.63257 8.39323 9.29752 7.35831 9.73028C5.90556 10.3383 3.92671 11.3101 2.75001 12.4869C2.26353 12.9734 0.637814 14.8308 0.141275 18.306C-0.33678 21.6519 0.399752 25.2437 2.33056 28.9822C2.52363 29.3558 2.98299 29.5027 3.35685 29.3093C3.7306 29.1162 3.87705 28.6568 3.68398 28.2829C-0.242428 20.6806 2.0607 15.3308 3.82718 13.5643C3.99151 13.3998 4.1861 13.2319 4.40832 13.0618C6.08745 15.9399 8.23174 19.0213 10.7962 22.2413C6.98923 25.2113 9.2753 30.8054 13.0862 34.6168L17.385 38.9162C19.467 40.9983 22.6288 43.1331 25.6037 43.1327C28.5109 43.1327 29.7437 41.2203 29.7539 41.2131C32.9735 43.7804 36.0528 45.9273 38.9268 47.6087C38.7603 47.8251 38.5959 48.0152 38.4348 48.1761C37.1172 49.4941 34.2725 50.6993 30.7274 50.441C24.7519 50.0051 19.12 45.8236 14.8968 41.5999L10.4025 37.1049C8.36215 35.0643 6.64483 33.0107 5.29811 31.0012C5.06391 30.6516 4.59083 30.5585 4.24135 30.7925C3.89198 31.0268 3.79854 31.4999 4.03274 31.8495C5.43441 33.941 7.2151 36.0717 9.32537 38.1823L13.8196 42.6773C18.3248 47.1829 24.2373 51.4953 30.6165 51.9604C34.5891 52.2508 37.8676 50.8977 39.5119 49.2534C40.6677 48.0975 41.6347 46.1585 42.2682 44.6446C42.7014 43.6098 42.3664 42.432 41.4536 41.7801V41.7801ZM5.68699 12.2296C6.33994 11.8589 7.10125 11.4894 7.94635 11.1358C8.32102 10.9791 8.74707 11.1004 8.9829 11.4307L14.126 18.6337C14.3975 19.0138 14.3204 19.5341 13.9506 19.8182L12.0047 21.313C9.49061 18.1557 7.32418 15.0408 5.68699 12.2296V12.2296Z" fill="black"/>
<path d="M46.3258 3.87086C46.006 3.59766 45.5252 3.63534 45.2519 3.95526C44.9787 4.27508 45.0164 4.75588 45.3363 5.02918C48.5705 7.7925 50.5447 11.8663 50.4748 16.4186C50.3138 26.912 39.595 33.7585 30.0593 29.7068C26.4501 28.1728 23.9635 30.0237 21.402 30.5996C21.9629 28.1057 23.8267 25.5481 22.2945 21.9444C21.1629 19.2827 20.8444 16.3667 21.3734 13.5117C22.5095 7.37964 27.4604 2.53237 33.7921 1.65954C36.8792 1.23379 40.0794 1.8125 42.8033 3.28861C43.1734 3.48939 43.6355 3.35157 43.8359 2.98179C44.0363 2.61189 43.899 2.14948 43.5291 1.9491C40.522 0.319528 36.9903 -0.319199 33.5841 0.150325C26.5971 1.11344 21.1307 6.4603 19.8755 13.2341C19.2917 16.3845 19.6434 19.6026 20.8926 22.5406C22.1538 25.507 20.548 27.5541 19.8709 30.3868C19.7123 30.8834 19.8427 31.4211 20.2112 31.7899C20.5801 32.1589 21.1179 32.2899 21.6149 32.1309C24.4649 31.4501 26.4979 29.8491 29.4638 31.1092C31.48 31.9659 33.6284 32.4005 35.7965 32.4005C44.5312 32.4005 51.8599 25.4493 51.9982 16.4422C52.0748 11.4378 49.9101 6.93277 46.3258 3.87086V3.87086Z" fill="black"/>
</g>
<defs>
<clipPath id="clip0_637_9087">
<rect width="52" height="52" fill="white"/>
</clipPath>
</defs>
</svg>
