<svg width="52" height="52" viewBox="0 0 52 52" fill="none" xmlns="http://www.w3.org/2000/svg">
<path d="M12.7736 51.2379C17.3302 51.2379 21.0241 49.7326 21.0241 47.8757C21.0241 46.0189 17.3302 44.5136 12.7736 44.5136C8.21704 44.5136 4.52319 46.0189 4.52319 47.8757C4.52319 49.7326 8.21704 51.2379 12.7736 51.2379Z" fill="#FFDB56"/>
<path d="M20.3044 46.5028C19.0157 47.6752 16.1295 48.4925 12.7732 48.4925C9.41685 48.4925 6.53064 47.6752 5.24201 46.5028C4.78122 46.9221 4.52295 47.3862 4.52295 47.8753C4.52295 49.7323 8.21668 51.2376 12.7733 51.2376C17.3298 51.2376 21.0236 49.7323 21.0236 47.8753C21.0234 47.3862 20.765 46.922 20.3044 46.5028Z" fill="#FFBB24"/>
<path d="M12.7733 16.3932C6.15301 16.3932 0.786133 21.76 0.786133 28.3804C0.786133 38.4618 12.7733 47.7377 12.7733 47.7377C12.7733 47.7377 24.7604 38.4618 24.7604 28.3804C24.7604 21.76 19.3936 16.3932 12.7733 16.3932ZM12.7733 33.1614C10.1328 33.1614 7.99231 31.0208 7.99231 28.3804C7.99231 25.74 10.1328 23.5993 12.7733 23.5993C15.4137 23.5993 17.5543 25.7399 17.5543 28.3804C17.5543 31.0208 15.4138 33.1614 12.7733 33.1614Z" fill="#FF4A4A"/>
<path d="M12.7732 16.3932C12.3089 16.3932 11.8512 16.4205 11.4006 16.472C17.3743 17.153 22.0153 22.2244 22.0153 28.3804C22.0153 36.3385 14.547 43.7933 11.4006 46.5812C12.2402 47.3251 12.7732 47.7379 12.7732 47.7379C12.7732 47.7379 24.7603 38.462 24.7603 28.3806C24.7603 21.76 19.3935 16.3932 12.7732 16.3932Z" fill="#E7343F"/>
<path d="M42.0002 27.5427C45.5023 27.5427 48.3413 26.3858 48.3413 24.9586C48.3413 23.5315 45.5023 22.3746 42.0002 22.3746C38.4982 22.3746 35.6592 23.5315 35.6592 24.9586C35.6592 26.3858 38.4982 27.5427 42.0002 27.5427Z" fill="#FFDB56"/>
<path d="M47.3724 23.5862C46.2505 24.3138 44.2649 24.7977 42.0006 24.7977C39.7364 24.7977 37.7506 24.3138 36.6289 23.5862C36.0156 23.9839 35.6597 24.4542 35.6597 24.9587C35.6597 26.386 38.4986 27.5428 42.0006 27.5428C45.5026 27.5428 48.3416 26.3858 48.3416 24.9587C48.3416 24.4542 47.9856 23.984 47.3724 23.5862Z" fill="#FFBB24"/>
<path d="M42.0009 0.762512C36.9127 0.762512 32.7881 4.88728 32.7881 9.97547C32.7881 17.7238 42.0009 24.853 42.0009 24.853C42.0009 24.853 51.2139 17.7238 51.2139 9.97547C51.2139 4.88728 47.0891 0.762512 42.0009 0.762512ZM42.0009 13.65C39.9715 13.65 38.3264 12.0049 38.3264 9.97547C38.3264 7.94604 39.9715 6.30093 42.0009 6.30093C44.0304 6.30093 45.6756 7.94604 45.6756 9.97547C45.6756 12.0049 44.0304 13.65 42.0009 13.65Z" fill="#FF4A4A"/>
<path d="M42.0009 0.762512C41.5345 0.762512 41.0763 0.79745 40.6284 0.86438C45.0655 1.52718 48.4688 5.35376 48.4688 9.97537C48.4688 15.8378 43.1956 21.3449 40.6284 23.6787C41.4542 24.4296 42.0009 24.8529 42.0009 24.8529C42.0009 24.8529 51.2138 17.7237 51.2138 9.97537C51.2138 4.88728 47.0891 0.762512 42.0009 0.762512Z" fill="#E7343F"/>
<path d="M12.7734 15.6307C5.74318 15.6307 0.0236816 21.3502 0.0236816 28.3804C0.0236816 32.7452 2.10003 37.4382 6.19514 42.3291C6.8036 43.0558 7.40993 43.7291 7.99178 44.3435C5.3477 45.0652 3.76027 46.3618 3.76027 47.8752C3.76027 50.5543 8.40392 52 12.773 52C17.1422 52 21.7858 50.5542 21.7858 47.8752C21.7858 46.363 20.1988 45.0661 17.5564 44.3441C18.6121 43.2296 19.748 41.9185 20.8258 40.456C21.0757 40.1169 21.0033 39.6396 20.6643 39.3897C20.3255 39.1402 19.8479 39.2123 19.5981 39.5513C18.2968 41.3172 16.8884 42.8691 15.6594 44.1017C15.5185 44.1737 15.4007 44.2878 15.3268 44.4317C14.2259 45.5137 13.2994 46.3163 12.7739 46.7549C12.254 46.3206 11.3416 45.5288 10.2548 44.461C10.1768 44.29 10.0398 44.156 9.87262 44.0812C6.41878 40.6073 1.54885 34.6053 1.54885 28.3806C1.54885 22.1913 6.58423 17.1559 12.7735 17.1559C18.9627 17.1559 23.9981 22.1913 23.9981 28.3806C23.9981 31.0834 23.0771 34.0024 21.2607 37.0562C21.0455 37.4183 21.1644 37.8862 21.5263 38.1014C21.8883 38.3166 22.3563 38.1978 22.5715 37.8358C24.53 34.5428 25.5231 31.3616 25.5231 28.3806C25.523 21.3502 19.8035 15.6307 12.7734 15.6307ZM12.7734 48.5002C12.938 48.5002 13.1026 48.4471 13.24 48.3408C13.3337 48.2684 14.6078 47.2747 16.3062 45.614C18.878 46.1385 20.2609 47.1483 20.2609 47.8752C20.2609 48.4181 19.5168 49.0585 18.3191 49.5465C16.8501 50.1452 14.8805 50.475 12.773 50.475C8.20222 50.475 5.28524 48.9351 5.28524 47.8752C5.28524 47.1473 6.66852 46.138 9.24171 45.6135C10.9497 47.284 12.2257 48.278 12.3067 48.3408C12.4441 48.4472 12.6088 48.5002 12.7734 48.5002Z" fill="black"/>
<path d="M8.38755 26.3261C7.98293 26.2104 7.56053 26.444 7.44424 26.8487C7.30195 27.3446 7.22974 27.8598 7.22974 28.3804C7.22974 31.4371 9.7165 33.9239 12.7732 33.9239C15.83 33.9239 18.3167 31.4372 18.3167 28.3804C18.3167 25.3237 15.83 22.8369 12.7732 22.8369C11.5672 22.8369 10.4203 23.2176 9.4567 23.938C9.11951 24.1902 9.05045 24.668 9.30253 25.0053C9.55481 25.3425 10.0326 25.4115 10.3699 25.1595C11.0677 24.6378 11.8988 24.3619 12.7731 24.3619C14.989 24.3619 16.7916 26.1646 16.7916 28.3804C16.7916 30.5962 14.9889 32.3989 12.7731 32.3989C10.5573 32.3989 8.7547 30.5962 8.7547 28.3804C8.7547 28.0023 8.80701 27.6285 8.91009 27.2696C9.02628 26.8646 8.79238 26.4423 8.38755 26.3261Z" fill="black"/>
<path d="M49.1042 24.9587C49.1042 23.7505 47.9685 22.7443 46.0037 22.153C46.3916 21.7367 46.7912 21.2881 47.1921 20.8094C50.3667 17.0177 51.9764 13.3728 51.9764 9.97539C51.9763 4.47506 47.5013 0 42.0009 0C37.9828 0 34.3749 2.3914 32.8098 6.09234C32.6456 6.48021 32.8271 6.92769 33.2149 7.09161C33.6027 7.25554 34.0502 7.07425 34.2142 6.68648C35.5404 3.55104 38.5968 1.52496 42.0009 1.52496C46.6605 1.52496 50.4513 5.31589 50.4513 9.97549C50.4513 16.2768 43.8357 22.3137 42.0006 23.8667C41.5962 23.5249 40.9596 22.9656 40.2132 22.2339C40.1387 22.0862 40.0184 21.9693 39.8741 21.8969C37.2412 19.246 33.5505 14.6892 33.5505 9.97549C33.5505 9.55431 33.2092 9.21295 32.7879 9.21295C32.3667 9.21295 32.0254 9.55421 32.0254 9.97549C32.0254 13.3728 33.6352 17.0178 36.8098 20.8095C37.2105 21.2879 37.6098 21.7363 37.9976 22.1524C36.0319 22.743 34.8972 23.7483 34.8972 24.9588C34.8972 25.9796 35.7253 26.8795 37.2293 27.4922C38.5161 28.0166 40.2106 28.3054 42.0008 28.3054C43.7908 28.3054 45.4854 28.0166 46.7723 27.4922C48.2759 26.8794 49.1042 25.9795 49.1042 24.9587ZM42.0007 26.7803C38.3912 26.7803 36.4222 25.5769 36.4222 24.9586C36.4222 24.5558 37.3179 23.8187 39.2306 23.412C40.5175 24.6642 41.4727 25.4082 41.5343 25.4561C41.6717 25.5624 41.8363 25.6155 42.001 25.6155C42.1656 25.6155 42.3301 25.5624 42.4677 25.4561C42.5293 25.4084 43.4843 24.6643 44.7712 23.4122C45.6233 23.5939 46.3615 23.8601 46.878 24.1747C47.3171 24.4422 47.5792 24.7353 47.5792 24.9587C47.5791 25.5769 45.6101 26.7803 42.0007 26.7803Z" fill="black"/>
<path d="M46.438 9.97546C46.438 7.52892 44.4475 5.53839 42.0009 5.53839C39.5543 5.53839 37.5637 7.52882 37.5637 9.97546C37.5637 12.422 39.5541 14.4124 42.0009 14.4124C44.4476 14.4124 46.438 12.4221 46.438 9.97546ZM39.0889 9.97546C39.0889 8.36976 40.3952 7.06335 42.001 7.06335C43.6067 7.06335 44.9131 8.36965 44.9131 9.97546C44.9131 11.5811 43.6068 12.8875 42.001 12.8875C40.3952 12.8875 39.0889 11.5812 39.0889 9.97546Z" fill="black"/>
<path d="M32.1097 25.7212C32.5307 25.7212 32.8722 25.38 32.8722 24.9587C32.8722 24.5374 32.5307 24.1962 32.1097 24.1962H31.7615C31.508 24.1962 31.2533 24.2129 31.0041 24.2461C30.5867 24.3017 30.2933 24.685 30.3488 25.1026C30.3999 25.4859 30.7273 25.7647 31.1037 25.7647C31.1372 25.7647 31.1711 25.7626 31.2052 25.758C31.388 25.7337 31.5751 25.7214 31.7616 25.7214H32.1097V25.7212Z" fill="black"/>
<path d="M29.5888 47.0739C29.5876 47.0739 29.5865 47.0739 29.5853 47.0739L28.5782 47.0785C28.1571 47.0804 27.8173 47.4234 27.8191 47.8445C27.821 48.2644 28.1621 48.6035 28.5815 48.6035C28.5827 48.6035 28.584 48.6035 28.5851 48.6035L29.5922 48.599C30.0133 48.597 30.3531 48.2541 30.3513 47.833C30.3494 47.4129 30.0083 47.0739 29.5888 47.0739Z" fill="black"/>
<path d="M33.0145 35.5982C33.4357 35.5982 33.777 35.2569 33.777 34.8357C33.777 34.4145 33.4357 34.0732 33.0145 34.0732H32.0074C31.5862 34.0732 31.2449 34.4144 31.2449 34.8357C31.2449 35.2569 31.5862 35.5982 32.0074 35.5982H33.0145Z" fill="black"/>
<path d="M27.3026 27.6391C27.4372 27.7358 27.5927 27.7823 27.7468 27.7823C27.984 27.7823 28.2178 27.6719 28.3668 27.4645C28.5323 27.2341 28.722 27.0196 28.9306 26.8272C29.2401 26.5417 29.2595 26.0593 28.974 25.7497C28.6885 25.4404 28.2063 25.4209 27.8965 25.7063C27.6123 25.9684 27.3537 26.2606 27.128 26.5748C26.8824 26.9171 26.9606 27.3935 27.3026 27.6391Z" fill="black"/>
<path d="M33.6173 47.0554C33.6161 47.0554 33.615 47.0554 33.6137 47.0554L32.6067 47.06C32.1857 47.0619 31.8458 47.4049 31.8477 47.826C31.8496 48.2459 32.1905 48.5851 32.6101 48.5851C32.6113 48.5851 32.6124 48.5851 32.6136 48.5851L33.6206 48.5805C34.0417 48.5787 34.3816 48.2356 34.3797 47.8145C34.3779 47.3945 34.0367 47.0554 33.6173 47.0554Z" fill="black"/>
<path d="M25.5603 47.0921C25.559 47.0921 25.5579 47.0921 25.5567 47.0921L24.5496 47.0967C24.1285 47.0985 23.7887 47.4416 23.7905 47.8627C23.7925 48.2826 24.1334 48.6217 24.553 48.6217C24.5542 48.6217 24.5553 48.6217 24.5565 48.6217L25.5636 48.6172C25.9847 48.6152 26.3245 48.2723 26.3227 47.8512C26.3209 47.4311 25.9799 47.0921 25.5603 47.0921Z" fill="black"/>
<path d="M29.1298 34.8398C29.3829 34.8398 29.6304 34.7139 29.7755 34.4839C30.0002 34.1277 29.8935 33.6569 29.5373 33.4321C29.2979 33.281 29.0724 33.1045 28.8677 32.9077C28.5642 32.6157 28.0813 32.6254 27.7896 32.9287C27.4977 33.2321 27.5071 33.7148 27.8106 34.0067C28.0897 34.2752 28.3969 34.5158 28.7238 34.7219C28.85 34.8018 28.9906 34.8398 29.1298 34.8398Z" fill="black"/>
<path d="M27.6628 30.7011C27.6116 30.4383 27.5856 30.1679 27.5856 29.8973L27.5858 29.855C27.5908 29.4339 27.2534 29.0886 26.8322 29.0837C26.8293 29.0836 26.8262 29.0836 26.8232 29.0836C26.4062 29.0836 26.0657 29.4192 26.0609 29.8373L26.0605 29.8974C26.0605 30.2657 26.096 30.6343 26.1659 30.9929C26.2368 31.357 26.5559 31.6096 26.9136 31.6096C26.9618 31.6096 27.011 31.605 27.0602 31.5954C27.4736 31.5148 27.7433 31.1145 27.6628 30.7011Z" fill="black"/>
<path d="M37.0431 35.5982C37.4642 35.5982 37.8056 35.2569 37.8056 34.8357C37.8056 34.4145 37.4642 34.0732 37.0431 34.0732H36.036C35.6148 34.0732 35.2734 34.4144 35.2734 34.8357C35.2734 35.2569 35.6148 35.5982 36.036 35.5982H37.0431Z" fill="black"/>
<path d="M48.8127 36.9867C49.038 36.9867 49.2612 36.8872 49.4117 36.6966C49.6726 36.3662 49.6163 35.8866 49.2858 35.6257C48.992 35.3938 48.6779 35.1831 48.3522 34.9998C47.9857 34.7931 47.5203 34.923 47.3136 35.2899C47.107 35.6567 47.2368 36.1219 47.6038 36.3285C47.8608 36.4733 48.1088 36.6396 48.3407 36.8227C48.4807 36.9333 48.6472 36.9867 48.8127 36.9867Z" fill="black"/>
<path d="M45.5957 46.9508C45.3459 46.9853 45.0902 47.0035 44.8352 47.0045L44.6925 47.0052C44.2713 47.0074 43.9316 47.3504 43.9336 47.7714C43.9357 48.1913 44.2767 48.5303 44.696 48.5303C44.6974 48.5303 44.6986 48.5303 44.6998 48.5303L44.8422 48.5296C45.1642 48.5282 45.488 48.5053 45.8044 48.4615C46.2215 48.4038 46.513 48.0188 46.4554 47.6018C46.3975 47.1847 46.012 46.8927 45.5957 46.9508Z" fill="black"/>
<path d="M48.7426 45.4313C48.5287 45.6351 48.297 45.8239 48.0542 45.9922C47.7081 46.2321 47.6221 46.7072 47.8619 47.0535C48.0101 47.2671 48.2476 47.3816 48.4893 47.3816C48.6392 47.3816 48.7905 47.3375 48.923 47.2457C49.2304 47.0325 49.5236 46.7937 49.7944 46.5356C50.0993 46.2451 50.1109 45.7624 49.8204 45.4576C49.53 45.1524 49.0472 45.1407 48.7426 45.4313Z" fill="black"/>
<path d="M51.3044 41.7541C50.8912 41.6762 50.492 41.9484 50.414 42.3623C50.3592 42.6525 50.2814 42.9405 50.1824 43.2183C50.041 43.6149 50.2478 44.0511 50.6446 44.1926C50.7292 44.2227 50.8158 44.237 50.9007 44.237C51.2139 44.237 51.5076 44.0425 51.6189 43.7305C51.7446 43.378 51.8434 43.0127 51.9127 42.6445C51.9905 42.2308 51.7183 41.832 51.3044 41.7541Z" fill="black"/>
<path d="M50.3492 37.8799C49.9676 38.058 49.8026 38.5117 49.9806 38.8934C50.1055 39.161 50.2101 39.4405 50.2915 39.7237C50.3875 40.0582 50.6926 40.2761 51.024 40.2761C51.0937 40.2761 51.1644 40.2665 51.2347 40.2464C51.6395 40.1302 51.8734 39.7078 51.7573 39.3031C51.6539 38.943 51.5212 38.5884 51.3626 38.2484C51.1845 37.8669 50.7313 37.7019 50.3492 37.8799Z" fill="black"/>
<path d="M41.0719 35.5982C41.4931 35.5982 41.8344 35.2569 41.8344 34.8357C41.8344 34.4145 41.4931 34.0732 41.0719 34.0732H40.0648C39.6436 34.0732 39.3022 34.4144 39.3022 34.8357C39.3022 35.2569 39.6436 35.5982 40.0648 35.5982H41.0719Z" fill="black"/>
<path d="M37.646 47.0371C37.6447 47.0371 37.6436 47.0371 37.6424 47.0371L36.6353 47.0417C36.2142 47.0436 35.8744 47.3866 35.8762 47.8077C35.8782 48.2276 36.2191 48.5667 36.6387 48.5667C36.6399 48.5667 36.641 48.5667 36.6422 48.5667L37.6493 48.5622C38.0704 48.5602 38.4102 48.2173 38.4084 47.7962C38.4066 47.3762 38.0655 47.0371 37.646 47.0371Z" fill="black"/>
<path d="M44.8094 35.5982C44.8956 35.5982 44.9813 35.6002 45.0665 35.6039C45.078 35.6045 45.0895 35.6047 45.1008 35.6047C45.5064 35.6047 45.844 35.2851 45.862 34.876C45.8806 34.4552 45.5547 34.0991 45.1341 34.0806C45.0261 34.0757 44.9169 34.0734 44.8095 34.0734H44.0933C43.6722 34.0734 43.3308 34.4146 43.3308 34.8359C43.3308 35.2571 43.6722 35.5984 44.0933 35.5984L44.8094 35.5982Z" fill="black"/>
<path d="M41.6746 47.019C41.6734 47.019 41.6723 47.019 41.6711 47.019L40.6639 47.0236C40.2428 47.0254 39.903 47.3685 39.9048 47.7895C39.9066 48.2095 40.2477 48.5486 40.6672 48.5486C40.6684 48.5486 40.6696 48.5486 40.6708 48.5486L41.6779 48.544C42.099 48.5422 42.4388 48.1991 42.437 47.7781C42.4351 47.358 42.0941 47.019 41.6746 47.019Z" fill="black"/>
</svg>
