<svg width="50" height="52" viewBox="0 0 50 52" fill="none" xmlns="http://www.w3.org/2000/svg">
<path d="M1.44434 10.4609V37.778C1.44434 39.6365 2.95091 41.143 4.80931 41.143H41.8255V10.4608H1.44434V10.4609Z" fill="#ECF0F9"/>
<path d="M39.4895 10.4609H41.8254V41.1431H39.4895V10.4609Z" fill="#D8E4F0"/>
<path d="M38.4603 51.2383C44.0358 51.2383 48.5556 46.7185 48.5556 41.143C48.5556 35.5675 44.0358 31.0477 38.4603 31.0477C32.8848 31.0477 28.365 35.5675 28.365 41.143C28.365 46.7185 32.8848 51.2383 38.4603 51.2383Z" fill="#4C9CD6"/>
<path d="M18.5501 19.2698H15.185C14.7203 19.2698 14.3438 18.8931 14.3438 18.4285V15.0635C14.3438 14.5988 14.7204 14.2222 15.185 14.2222H18.5501C19.0147 14.2222 19.3913 14.5989 19.3913 15.0635V18.4285C19.3914 18.8932 19.0147 19.2698 18.5501 19.2698Z" fill="#595A66"/>
<path d="M28.0845 19.2698H24.7194C24.2548 19.2698 23.8782 18.8931 23.8782 18.4285V15.0635C23.8782 14.5988 24.2548 14.2222 24.7194 14.2222H28.0845C28.5491 14.2222 28.9257 14.5989 28.9257 15.0635V18.4285C28.9258 18.8932 28.5491 19.2698 28.0845 19.2698Z" fill="#595A66"/>
<path d="M37.6192 19.2698H34.2541C33.7894 19.2698 33.4128 18.8931 33.4128 18.4285V15.0635C33.4128 14.5988 33.7895 14.2222 34.2541 14.2222H37.6192C38.0838 14.2222 38.4604 14.5989 38.4604 15.0635V18.4285C38.4604 18.8932 38.0838 19.2698 37.6192 19.2698Z" fill="#595A66"/>
<path d="M9.04448 27.6826H5.62183C5.17312 27.6826 4.80933 27.3188 4.80933 26.8701V23.4474C4.80933 22.9987 5.17312 22.6349 5.62183 22.6349H9.04448C9.49319 22.6349 9.85698 22.9987 9.85698 23.4474V26.8701C9.85698 27.3188 9.49319 27.6826 9.04448 27.6826Z" fill="#595A66"/>
<path d="M18.5792 27.6826H15.1565C14.7078 27.6826 14.344 27.3188 14.344 26.8701V23.4474C14.344 22.9987 14.7078 22.6349 15.1565 22.6349H18.5792C19.0279 22.6349 19.3917 22.9987 19.3917 23.4474V26.8701C19.3917 27.3188 19.0279 27.6826 18.5792 27.6826Z" fill="#F04D4E"/>
<path d="M28.1136 27.6826H24.6909C24.2422 27.6826 23.8784 27.3188 23.8784 26.8701V23.4474C23.8784 22.9987 24.2422 22.6349 24.6909 22.6349H28.1136C28.5623 22.6349 28.9261 22.9987 28.9261 23.4474V26.8701C28.9261 27.3188 28.5623 27.6826 28.1136 27.6826Z" fill="#595A66"/>
<path d="M18.5792 36.0953H15.1565C14.7078 36.0953 14.344 35.7315 14.344 35.2828V31.8602C14.344 31.4115 14.7078 31.0477 15.1565 31.0477H18.5792C19.0279 31.0477 19.3917 31.4115 19.3917 31.8602V35.2828C19.3917 35.7315 19.0279 36.0953 18.5792 36.0953Z" fill="#595A66"/>
<path d="M37.648 27.6826H34.2253C33.7766 27.6826 33.4128 27.3188 33.4128 26.8701V23.4474C33.4128 22.9987 33.7766 22.6349 34.2253 22.6349H37.648C38.0967 22.6349 38.4605 22.9987 38.4605 23.4474V26.8701C38.4605 27.3188 38.0968 27.6826 37.648 27.6826Z" fill="#595A66"/>
<path d="M9.04448 36.0953H5.62183C5.17312 36.0953 4.80933 35.7315 4.80933 35.2828V31.8602C4.80933 31.4115 5.17312 31.0477 5.62183 31.0477H9.04448C9.49319 31.0477 9.85698 31.4115 9.85698 31.8602V35.2828C9.85698 35.7315 9.49319 36.0953 9.04448 36.0953Z" fill="#595A66"/>
<path d="M41.8255 10.857V5.80937C41.8255 3.95087 40.3189 2.4444 38.4604 2.4444H35.0953H8.17448H4.80931C2.95081 2.4444 1.44434 3.95098 1.44434 5.80937V10.857H41.8255Z" fill="#F04D4E"/>
<path d="M8.17456 5.80938C8.17456 6.73867 8.92785 7.49196 9.85715 7.49196C10.7864 7.49196 11.5397 6.73867 11.5397 5.80938V2.4443C11.5397 1.51501 10.7864 0.761719 9.85715 0.761719C8.92785 0.761719 8.17456 1.51501 8.17456 2.4443V5.80938Z" fill="#ECF0F9"/>
<path d="M19.9524 5.80938C19.9524 6.73867 20.7057 7.49196 21.635 7.49196C22.5643 7.49196 23.3176 6.73867 23.3176 5.80938V2.4443C23.3176 1.51501 22.5643 0.761719 21.635 0.761719C20.7057 0.761719 19.9524 1.51501 19.9524 2.4443V5.80938Z" fill="#ECF0F9"/>
<path d="M31.7302 5.80938C31.7302 6.73867 32.4835 7.49196 33.4128 7.49196C34.3421 7.49196 35.0954 6.73867 35.0954 5.80938V2.4443C35.0954 1.51501 34.3421 0.761719 33.4128 0.761719C32.4835 0.761719 31.7302 1.51501 31.7302 2.4443V5.80938Z" fill="#ECF0F9"/>
<path d="M41.8255 5.80937C41.8255 3.95087 40.3189 2.4444 38.4604 2.4444H36.1245C37.983 2.4444 39.4896 3.95098 39.4896 5.80937V10.857H41.8255V5.80937Z" fill="#DB343F"/>
<path d="M38.4603 51.2383C44.0358 51.2383 48.5556 46.7185 48.5556 41.143C48.5556 35.5675 44.0358 31.0477 38.4603 31.0477C32.8848 31.0477 28.365 35.5675 28.365 41.143C28.365 46.7185 32.8848 51.2383 38.4603 51.2383Z" fill="#4C9CD6"/>
<path d="M38.4604 31.0477C38.0654 31.0477 37.6758 31.0711 37.2925 31.1153C42.3177 31.6943 46.2198 35.9626 46.2198 41.143C46.2198 46.3234 42.3177 50.5916 37.2925 51.1707C37.6758 51.2148 38.0654 51.2383 38.4604 51.2383C44.0359 51.2383 48.5558 46.7185 48.5558 41.143C48.5558 35.5675 44.0359 31.0477 38.4604 31.0477Z" fill="#3689C9"/>
<path d="M38.4605 47.8732C42.1775 47.8732 45.1907 44.86 45.1907 41.143C45.1907 37.426 42.1775 34.4127 38.4605 34.4127C34.7435 34.4127 31.7302 37.426 31.7302 41.143C31.7302 44.86 34.7435 47.8732 38.4605 47.8732Z" fill="#ECF0F9"/>
<path d="M38.4604 34.4127C38.0618 34.4127 37.672 34.4494 37.2925 34.5158C40.4524 35.069 42.8548 37.8245 42.8548 41.143C42.8548 44.4613 40.4524 47.2168 37.2925 47.7701C37.672 47.8365 38.0618 47.8732 38.4604 47.8732C42.1774 47.8732 45.1907 44.8599 45.1907 41.143C45.1907 37.426 42.1774 34.4127 38.4604 34.4127Z" fill="#D8E4F0"/>
<path d="M38.4605 48.6349C42.5915 48.6349 45.9524 45.274 45.9524 41.1428C45.9524 37.0118 42.5915 33.6509 38.4605 33.6509C34.3294 33.6509 30.9685 37.0118 30.9685 41.1428C30.9686 45.274 34.3294 48.6349 38.4605 48.6349ZM38.4605 35.1744C41.7515 35.1744 44.429 37.8518 44.429 41.1429C44.429 44.4341 41.7515 47.1116 38.4605 47.1116C35.1694 47.1116 32.4919 44.4341 32.4919 41.1429C32.4919 37.8518 35.1694 35.1744 38.4605 35.1744Z" fill="black"/>
<path d="M42.5872 31.1015V5.80927C42.5872 3.53387 40.7359 1.68259 38.4605 1.68259H35.735C35.414 0.706773 34.4946 0 33.4128 0C32.3309 0 31.4115 0.706773 31.0906 1.68259H23.957C23.6361 0.706773 22.7168 0 21.635 0C20.5531 0 19.6337 0.706773 19.3128 1.68259H12.1793C11.8584 0.706773 10.9389 0 9.85706 0C8.77522 0 7.85588 0.706773 7.53494 1.68259H4.80931C2.5338 1.68259 0.682617 3.53377 0.682617 5.80927V37.778C0.682617 40.0535 2.5339 41.9048 4.80931 41.9048H10.6982C11.1189 41.9048 11.4599 41.5638 11.4599 41.1431C11.4599 40.7223 11.1189 40.3814 10.6982 40.3814H4.80931C3.37382 40.3814 2.20605 39.2135 2.20605 37.778V11.6188H41.0638V30.6022C40.2293 30.396 39.3576 30.2859 38.4604 30.2859C32.73 30.2859 28.0227 34.7488 27.6305 40.3813H13.7453C13.3246 40.3813 12.9836 40.7222 12.9836 41.143C12.9836 41.5637 13.3246 41.9047 13.7453 41.9047H27.6311C27.7725 43.959 28.4838 45.9058 29.7127 47.5746C29.9622 47.9133 30.439 47.9858 30.7777 47.7363C31.1164 47.4869 31.1888 47.0101 30.9394 46.6713C29.7536 45.061 29.1268 43.1492 29.1268 41.1429C29.1268 35.9963 33.3138 31.8094 38.4604 31.8094C43.607 31.8094 47.794 35.9964 47.794 41.1429C47.794 46.2893 43.607 50.4765 38.4604 50.4765C36.4142 50.4765 34.472 49.8269 32.8436 48.598C32.5078 48.3447 32.0302 48.4113 31.7768 48.7472C31.5234 49.0829 31.5901 49.5606 31.9259 49.814C33.8207 51.2442 36.0804 52 38.4604 52C44.447 52 49.3174 47.1296 49.3174 41.143C49.3174 36.6166 46.5329 32.7291 42.5872 31.1015ZM33.4128 1.52344C33.9205 1.52344 34.3335 1.93649 34.3335 2.4442V5.80938C34.3335 6.31709 33.9205 6.73014 33.4128 6.73014C32.905 6.73014 32.4919 6.31709 32.4919 5.80938V2.44532C32.4919 2.44502 32.4919 2.44471 32.4919 2.4443C32.4919 2.4441 32.4919 2.4439 32.4919 2.4438C32.4922 1.93629 32.9052 1.52344 33.4128 1.52344ZM20.7141 2.4442C20.7141 1.93649 21.1271 1.52344 21.635 1.52344C22.1427 1.52344 22.5557 1.93649 22.5557 2.4442V5.80938C22.5557 6.31709 22.1427 6.73014 21.635 6.73014C21.1273 6.73014 20.7141 6.31709 20.7141 5.80938V2.4442ZM8.9363 2.4442C8.9363 1.93649 9.34935 1.52344 9.85706 1.52344C10.3649 1.52344 10.7779 1.93649 10.7779 2.4442V5.80938C10.7779 6.31709 10.3649 6.73014 9.85706 6.73014C9.34935 6.73014 8.9363 6.31709 8.9363 5.80938V2.4442ZM2.20605 10.0953V5.80927C2.20605 4.37379 3.37392 3.20602 4.80931 3.20602H7.41276V5.80938C7.41276 7.15721 8.50923 8.25358 9.85696 8.25358C11.2048 8.25358 12.3013 7.15711 12.3013 5.80938V3.20602H19.1907V5.80938C19.1907 7.15721 20.2871 8.25358 21.635 8.25358C22.9827 8.25358 24.0792 7.15711 24.0792 5.80938V3.20602H30.9685V5.80938C30.9685 7.15721 32.0649 8.25358 33.4128 8.25358C34.7605 8.25358 35.857 7.15711 35.857 5.80938V3.20602H38.4604C39.8959 3.20602 41.0637 4.37379 41.0637 5.80927V10.0953H2.20605Z" fill="black"/>
<path d="M38.4604 41.9047H41.8255C42.2462 41.9047 42.5872 41.5637 42.5872 41.143C42.5872 40.7222 42.2462 40.3812 41.8255 40.3812H39.2222V37.7779C39.2222 37.3571 38.8811 37.0162 38.4604 37.0162C38.0398 37.0162 37.6987 37.3571 37.6987 37.7779V41.143C37.6987 41.5636 38.0398 41.9047 38.4604 41.9047Z" fill="black"/>
<path d="M15.1851 20.0315H18.5502C19.4341 20.0315 20.1531 19.3124 20.1531 18.4285V15.0633C20.1531 14.1794 19.434 13.4604 18.5502 13.4604H15.1851C14.3012 13.4604 13.582 14.1794 13.582 15.0633V18.4285C13.5821 19.3124 14.3012 20.0315 15.1851 20.0315ZM15.1056 15.0633C15.1056 15.0195 15.1413 14.9838 15.1852 14.9838H18.5503C18.5941 14.9838 18.6298 15.0196 18.6298 15.0633V18.4285C18.6298 18.4724 18.594 18.508 18.5503 18.508H15.1852C15.1413 18.508 15.1056 18.4723 15.1056 18.4285V15.0633Z" fill="black"/>
<path d="M24.7197 20.0315H28.0847C28.9686 20.0315 29.6878 19.3124 29.6878 18.4285V15.0633C29.6878 14.1794 28.9686 13.4604 28.0847 13.4604H24.7197C23.8358 13.4604 23.1167 14.1794 23.1167 15.0633V18.4285C23.1167 19.3124 23.8358 20.0315 24.7197 20.0315ZM24.6401 15.0633C24.6401 15.0195 24.6759 14.9838 24.7197 14.9838H28.0847C28.1286 14.9838 28.1644 15.0196 28.1644 15.0633V18.4285C28.1644 18.4724 28.1286 18.508 28.0847 18.508H24.7197C24.6758 18.508 24.6401 18.4723 24.6401 18.4285V15.0633Z" fill="black"/>
<path d="M34.2541 20.0315H37.6192C38.5031 20.0315 39.2221 19.3124 39.2221 18.4285V15.0633C39.2221 14.1794 38.5031 13.4604 37.6192 13.4604H34.2541C33.3702 13.4604 32.6511 14.1794 32.6511 15.0633V18.4285C32.651 19.3124 33.3702 20.0315 34.2541 20.0315ZM34.1745 15.0633C34.1745 15.0195 34.2102 14.9838 34.254 14.9838H37.6191C37.6629 14.9838 37.6986 15.0196 37.6986 15.0633V18.4285C37.6986 18.4724 37.6628 18.508 37.6191 18.508H34.254C34.2101 18.508 34.1745 18.4723 34.1745 18.4285V15.0633Z" fill="black"/>
<path d="M10.6187 23.4474C10.6187 22.5794 9.91254 21.8732 9.04448 21.8732H5.62183C4.75377 21.8732 4.04761 22.5794 4.04761 23.4474V26.87C4.04761 27.7381 4.75377 28.4442 5.62183 28.4442H9.04448C9.91254 28.4442 10.6187 27.7381 10.6187 26.87V23.4474ZM9.09526 26.87C9.09526 26.8979 9.07251 26.9208 9.04448 26.9208H5.62183C5.59379 26.9208 5.57104 26.8979 5.57104 26.87V23.4474C5.57104 23.4195 5.59379 23.3967 5.62183 23.3967H9.04448C9.07251 23.3967 9.09526 23.4195 9.09526 23.4474V26.87Z" fill="black"/>
<path d="M13.5823 26.87C13.5823 27.7381 14.2884 28.4442 15.1565 28.4442H18.5792C19.4472 28.4442 20.1534 27.7381 20.1534 26.87V23.4474C20.1534 22.5794 19.4472 21.8732 18.5792 21.8732H15.1565C14.2884 21.8732 13.5823 22.5794 13.5823 23.4474V26.87ZM15.1057 23.4474C15.1057 23.4195 15.1285 23.3967 15.1565 23.3967H18.5792C18.6072 23.3967 18.6299 23.4195 18.6299 23.4474V26.87C18.6299 26.8979 18.6072 26.9208 18.5792 26.9208H15.1565C15.1285 26.9208 15.1057 26.8979 15.1057 26.87V23.4474Z" fill="black"/>
<path d="M23.1167 26.87C23.1167 27.7381 23.8229 28.4442 24.6909 28.4442H28.1136C28.9816 28.4442 29.6878 27.7381 29.6878 26.87V23.4474C29.6878 22.5794 28.9816 21.8732 28.1136 21.8732H24.6909C23.8229 21.8732 23.1167 22.5794 23.1167 23.4474V26.87ZM24.6401 23.4474C24.6401 23.4195 24.6629 23.3967 24.6909 23.3967H28.1136C28.1416 23.3967 28.1644 23.4195 28.1644 23.4474V26.87C28.1644 26.8979 28.1416 26.9208 28.1136 26.9208H24.6909C24.6629 26.9208 24.6401 26.8979 24.6401 26.87V23.4474Z" fill="black"/>
<path d="M13.5823 35.2828C13.5823 36.1509 14.2884 36.857 15.1565 36.857H18.5792C19.4472 36.857 20.1534 36.1509 20.1534 35.2828V31.8602C20.1534 30.9921 19.4472 30.2859 18.5792 30.2859H15.1565C14.2884 30.2859 13.5823 30.9921 13.5823 31.8602V35.2828ZM15.1057 31.8602C15.1057 31.8322 15.1285 31.8094 15.1565 31.8094H18.5792C18.6072 31.8094 18.6299 31.8322 18.6299 31.8602V35.2828C18.6299 35.3108 18.6072 35.3336 18.5792 35.3336H15.1565C15.1285 35.3336 15.1057 35.3108 15.1057 35.2828V31.8602Z" fill="black"/>
<path d="M32.6511 26.87C32.6511 27.7381 33.3573 28.4442 34.2253 28.4442H37.648C38.516 28.4442 39.2222 27.7381 39.2222 26.87V23.4474C39.2222 22.5794 38.516 21.8732 37.648 21.8732H34.2253C33.3573 21.8732 32.6511 22.5794 32.6511 23.4474V26.87ZM34.1746 23.4474C34.1746 23.4195 34.1973 23.3967 34.2253 23.3967H37.648C37.676 23.3967 37.6988 23.4195 37.6988 23.4474V26.87C37.6988 26.8979 37.676 26.9208 37.648 26.9208H34.2253C34.1973 26.9208 34.1746 26.8979 34.1746 26.87V23.4474Z" fill="black"/>
<path d="M9.04448 30.2859H5.62183C4.75377 30.2859 4.04761 30.9921 4.04761 31.8602V35.2828C4.04761 36.1509 4.75377 36.857 5.62183 36.857H9.04448C9.91254 36.857 10.6187 36.1509 10.6187 35.2828V31.8602C10.6187 30.9921 9.91254 30.2859 9.04448 30.2859ZM9.09526 35.2828C9.09526 35.3108 9.07251 35.3336 9.04448 35.3336H5.62183C5.59379 35.3336 5.57104 35.3108 5.57104 35.2828V31.8602C5.57104 31.8322 5.59379 31.8094 5.62183 31.8094H9.04448C9.07251 31.8094 9.09526 31.8322 9.09526 31.8602V35.2828Z" fill="black"/>
</svg>
