<svg width="52" height="52" viewBox="0 0 52 52" fill="none" xmlns="http://www.w3.org/2000/svg">
<path d="M24.2608 43.1605C33.8592 43.1605 41.6403 35.3794 41.6403 25.781C41.6403 16.1826 33.8592 8.40155 24.2608 8.40155C14.6624 8.40155 6.88135 16.1826 6.88135 25.781C6.88135 35.3794 14.6624 43.1605 24.2608 43.1605Z" fill="#F9F6F9"/>
<path d="M27.6228 42.8352C26.5357 43.0489 25.411 43.1604 24.2608 43.1604C14.6627 43.1604 6.88135 35.3791 6.88135 25.781C6.88135 16.182 14.6627 8.40149 24.2608 8.40149C25.411 8.40149 26.5356 8.51301 27.6228 8.72669C19.6329 10.2923 13.6045 17.3322 13.6045 25.781C13.6045 34.229 19.6329 41.2697 27.6228 42.8352Z" fill="#DDDAEC"/>
<path d="M24.2607 31.59C22.8502 31.59 21.7066 30.4465 21.7066 29.0359V26.6414C21.7066 25.2309 22.8501 24.0873 24.2607 24.0873C25.123 24.0873 25.9256 23.7422 26.5207 23.1153C27.1151 22.4892 27.4179 21.6674 27.3729 20.8013C27.2888 19.1817 25.9506 17.8874 24.3262 17.8547C22.746 17.8215 21.3917 18.9742 21.1742 20.5327C21.1542 20.6763 21.1441 20.8236 21.1441 20.9706C21.1441 22.3811 20.0006 23.5247 18.59 23.5247C17.1795 23.5247 16.0359 22.3812 16.0359 20.9706C16.0359 20.5881 16.0626 20.2031 16.1151 19.8265C16.6822 15.7626 20.1685 12.7459 24.261 12.7459C24.317 12.7459 24.3728 12.7464 24.429 12.7476C28.718 12.834 32.2518 16.2553 32.474 20.5367C32.5922 22.8155 31.7935 24.9804 30.2249 26.6326C29.28 27.6278 28.1008 28.3636 26.8146 28.7855V29.0359C26.8147 30.4465 25.6712 31.59 24.2607 31.59Z" fill="#9DC6FB"/>
<path d="M24.2606 38.8161C22.8501 38.8161 21.7065 37.6726 21.7065 36.262V36.1948C21.7065 34.7843 22.85 33.6407 24.2606 33.6407C25.6712 33.6407 26.8147 34.7842 26.8147 36.1948V36.262C26.8146 37.6726 25.6711 38.8161 24.2606 38.8161Z" fill="#9DC6FB"/>
<path d="M17.8434 19.8266C17.7906 20.2037 17.7642 20.5886 17.7642 20.9708C17.7642 22.0776 18.4682 23.0209 19.4541 23.3742C19.1842 23.4721 18.893 23.5249 18.59 23.5249C17.1793 23.5249 16.0359 22.3815 16.0359 20.9708C16.0359 20.5886 16.0623 20.2037 16.1151 19.8266C16.6821 15.7631 20.1684 12.7459 24.2608 12.7459C24.317 12.7459 24.3733 12.7467 24.4294 12.7476C24.6635 12.7527 24.896 12.7672 25.1249 12.7919C21.4148 13.181 18.3704 16.0526 17.8434 19.8266Z" fill="#80B4FB"/>
<path d="M28.2486 23.1155C27.6536 23.7429 26.8515 24.0877 25.9892 24.0877C24.5785 24.0877 23.4351 25.2311 23.4351 26.6418V29.0367C23.4351 30.1434 24.14 31.0867 25.125 31.4408C24.8551 31.5379 24.5639 31.5906 24.2609 31.5906C22.8502 31.5906 21.7068 30.4464 21.7068 29.0366V26.6417C21.7068 25.231 22.8502 24.0876 24.2609 24.0876C25.1234 24.0876 25.9253 23.7428 26.5203 23.1154C27.1155 22.4896 27.4176 21.6681 27.3726 20.8014C27.3036 19.4571 26.3688 18.3367 25.1232 17.9766C25.4195 17.8906 25.732 17.848 26.0546 17.8548C27.679 17.888 29.0173 19.1821 29.1007 20.8014C29.1459 21.6681 28.8438 22.4896 28.2486 23.1155Z" fill="#80B4FB"/>
<path d="M25.125 38.6662C24.8551 38.7633 24.5639 38.816 24.2609 38.816C22.8502 38.816 21.7068 37.6726 21.7068 36.2619V36.1954C21.7068 34.7847 22.8502 33.6414 24.2609 33.6414C24.5639 33.6414 24.8551 33.6942 25.125 33.7912C24.1399 34.1453 23.4351 35.0878 23.4351 36.1953V36.2618C23.435 37.3695 24.1399 38.312 25.125 38.6662Z" fill="#80B4FB"/>
<path d="M35.6892 0.844666H46.921C49.3054 0.844666 51.2382 2.7776 51.2382 5.16188V10.7679C51.2382 13.1523 49.3053 15.0851 46.921 15.0851H41.277L38.5752 18.1724C37.7738 19.0881 36.2656 18.5214 36.2656 17.3045V15.0852H35.6893C33.3049 15.0852 31.3721 13.1523 31.3721 10.768V5.16188C31.372 2.7775 33.3049 0.844666 35.6892 0.844666Z" fill="#E27A66"/>
<path d="M38.5237 18.2282C37.7105 19.0634 36.2655 18.4955 36.2655 17.3045V15.085H35.689C33.3049 15.085 31.3718 13.1519 31.3718 10.7678V5.16152C31.3718 2.77734 33.3049 0.844299 35.689 0.844299H37.5738C35.1892 0.844299 33.2566 2.77734 33.2566 5.16152V10.7678C33.2566 13.1518 35.1892 15.085 37.5738 15.085H38.1503V17.3045C38.1503 17.6842 38.2973 18.0007 38.5237 18.2282Z" fill="#DD636E"/>
<path d="M16.3108 51.1552H5.07894C2.69455 51.1552 0.761719 49.2223 0.761719 46.838V41.232C0.761719 38.8476 2.69466 36.9147 5.07894 36.9147H10.723L13.4247 33.8274C14.2262 32.9118 15.7344 33.4785 15.7344 34.6954V36.9147H16.3106C18.695 36.9147 20.6279 38.8477 20.6279 41.232V46.838C20.6281 49.2223 18.6951 51.1552 16.3108 51.1552Z" fill="#B3E59F"/>
<path d="M7.1306 36.9146H5.07894C2.69486 36.9146 0.761719 38.8477 0.761719 41.2318V46.8381C0.761719 49.2223 2.69476 51.1553 5.07894 51.1553H7.1306C4.74642 51.1553 2.81338 49.2223 2.81338 46.8381V41.2318C2.81338 38.8478 4.74642 36.9146 7.1306 36.9146Z" fill="#95D6A4"/>
<path d="M30.7774 27.157C32.4912 25.3519 33.364 22.9867 33.2348 20.4972C32.992 15.819 29.1307 12.0804 24.4453 11.9861C24.3836 11.9848 24.3225 11.9842 24.2611 11.9842C22.0966 11.9842 20.0032 12.7665 18.3667 14.187C16.7278 15.6097 15.6603 17.5751 15.3607 19.7213C15.3033 20.1332 15.2742 20.5534 15.2742 20.9705C15.2742 22.7989 16.7617 24.2863 18.59 24.2863C20.4183 24.2863 21.9057 22.7988 21.9057 20.9705C21.9057 20.8584 21.9134 20.7465 21.9285 20.6379C22.0929 19.4603 23.1162 18.5924 24.3108 18.6162C25.5378 18.6409 26.5486 19.618 26.6121 20.8408C26.6461 21.4961 26.4174 22.1177 25.9682 22.5909C25.5184 23.0647 24.9119 23.3256 24.2606 23.3256C22.4323 23.3256 20.9449 24.8131 20.9449 26.6414V29.0359C20.9449 30.8643 22.4324 32.3517 24.2606 32.3517C25.9919 32.3517 27.4175 31.018 27.5639 29.3241C28.7793 28.8424 29.8819 28.1002 30.7774 27.157ZM26.5773 28.0617C26.2645 28.1643 26.0529 28.4563 26.0529 28.7855V29.0359C26.0529 30.0242 25.2488 30.8283 24.2606 30.8283C23.2724 30.8283 22.4683 30.0242 22.4683 29.0359V26.6414C22.4683 25.6531 23.2724 24.849 24.2606 24.849C25.3338 24.849 26.3326 24.4196 27.073 23.6398C27.8128 22.8606 28.1894 21.8385 28.1334 20.7618C28.0288 18.7453 26.3631 17.1338 24.342 17.0931C24.3143 17.0926 24.2869 17.0923 24.2593 17.0923C22.3299 17.0923 20.6868 18.5127 20.4195 20.4274C20.3946 20.6055 20.3821 20.7882 20.3821 20.9706C20.3821 21.9589 19.578 22.7629 18.5898 22.7629C17.6016 22.7629 16.7974 21.9588 16.7974 20.9706C16.7974 20.6236 16.8216 20.2741 16.8693 19.9319C17.3804 16.2694 20.5581 13.5076 24.2608 13.5076C24.3115 13.5076 24.362 13.5081 24.4136 13.5093C28.3051 13.5876 31.5116 16.6917 31.7133 20.5762C31.8205 22.6443 31.0958 24.609 29.6725 26.1081C28.8261 26.9997 27.7558 27.6752 26.5773 28.0617Z" fill="black"/>
<path d="M24.2608 32.8792C22.4325 32.8792 20.9451 34.3666 20.9451 36.1949V36.262C20.9451 38.0903 22.4326 39.5777 24.2608 39.5777C26.089 39.5777 27.5765 38.0902 27.5765 36.262V36.1949C27.5765 34.3666 26.089 32.8792 24.2608 32.8792ZM26.0531 36.262C26.0531 37.2503 25.249 38.0543 24.2608 38.0543C23.2726 38.0543 22.4685 37.2502 22.4685 36.262V36.1949C22.4685 35.2066 23.2726 34.4026 24.2608 34.4026C25.249 34.4026 26.0531 35.2067 26.0531 36.1949V36.262Z" fill="black"/>
<path d="M46.9209 0.0830688H35.6891C32.8884 0.0830688 30.6099 2.36112 30.6099 5.16119V8.78312C28.5858 8.02455 26.4557 7.63932 24.2612 7.63932C14.2576 7.63932 6.11914 15.7778 6.11914 25.7814C6.11914 26.6531 6.1812 27.5268 6.30358 28.3781C6.35822 28.7577 6.68393 29.0315 7.05666 29.0315C7.09272 29.0315 7.12928 29.029 7.16605 29.0237C7.58245 28.9638 7.8715 28.5776 7.81158 28.1613C7.69945 27.3815 7.64258 26.5808 7.64258 25.7814C7.64258 16.6179 15.0977 9.16276 24.2612 9.16276C26.4659 9.16276 28.5991 9.58576 30.6099 10.4196V10.7673C30.6099 13.5061 32.7888 15.7455 35.5042 15.8431V17.3039C35.5042 18.1791 36.0337 18.9434 36.853 19.2512C37.0956 19.3423 37.3454 19.3865 37.5919 19.3865C38.1772 19.3865 38.7436 19.137 39.1488 18.6739L39.2371 18.5729C40.3132 20.8087 40.8782 23.2789 40.8782 25.781C40.8782 34.9438 33.4237 42.3983 24.2609 42.3983C23.2974 42.3983 22.3345 42.3138 21.3899 42.1495V41.2317C21.3899 38.4932 19.2114 36.2539 16.4964 36.156V34.6952C16.4964 33.8203 15.9672 33.0561 15.1482 32.7484C14.3295 32.4406 13.4279 32.6672 12.8517 33.3256L10.8569 35.6051C9.81876 34.1928 9.01652 32.6388 8.46889 30.9731C8.33747 30.5734 7.90695 30.356 7.5074 30.4873C7.10775 30.6188 6.89031 31.0492 7.02163 31.4488C7.57433 33.1299 8.36448 34.7064 9.37544 36.1528H5.07894C2.27845 36.1529 0 38.4312 0 41.2318V46.8379C0 49.6385 2.27845 51.9168 5.07894 51.9168H16.3107C19.1113 51.9168 21.3897 49.6384 21.3897 46.8379V43.6951C22.3364 43.8455 23.2984 43.9218 24.2607 43.9218C34.2635 43.9218 42.4014 35.784 42.4014 25.7811C42.4014 22.8337 41.6826 19.926 40.3192 17.3362L41.6227 15.8466H45.3974C45.8181 15.8466 46.1591 15.5055 46.1591 15.0849C46.1591 14.6642 45.8181 14.3231 45.3974 14.3231H41.277C41.0574 14.3231 40.8484 14.418 40.7037 14.5833L38.002 17.6709C37.767 17.9396 37.4731 17.8568 37.3886 17.8251C37.3039 17.7933 37.0276 17.6617 37.0276 17.304V15.0849C37.0276 14.6642 36.6865 14.3231 36.2658 14.3231H35.689C33.7283 14.3231 32.1333 12.7281 32.1333 10.7674V5.16119C32.1333 3.20114 33.7283 1.60651 35.689 1.60651H46.9208C48.8814 1.60651 50.4765 3.20114 50.4765 5.16119V10.7674C50.4765 12.2482 49.544 13.5884 48.1563 14.1025C47.7618 14.2485 47.5604 14.6868 47.7065 15.0813C47.8526 15.4758 48.2906 15.6773 48.6854 15.531C50.6679 14.7968 51.9999 12.8824 51.9999 10.7674V5.16119C52 2.36112 49.7215 0.0830688 46.9209 0.0830688ZM19.8663 46.838C19.8663 48.7985 18.2713 50.3935 16.3108 50.3935H5.07894C3.11848 50.3935 1.52344 48.7984 1.52344 46.838V41.2319C1.52344 39.2714 3.11848 37.6763 5.07894 37.6763H10.7231C10.9427 37.6763 11.1517 37.5815 11.2963 37.4162L13.9981 34.3289C14.2334 34.06 14.5277 34.1428 14.6122 34.1746C14.6968 34.2063 14.9727 34.3378 14.9727 34.6952V36.9145C14.9727 37.3352 15.3138 37.6762 15.7345 37.6762H16.3107C18.2713 37.6762 19.8662 39.2713 19.8662 41.2318V46.838H19.8663Z" fill="black"/>
<path d="M15.8964 41.5032H5.49341C5.07274 41.5032 4.73169 41.8442 4.73169 42.2649C4.73169 42.6856 5.07274 43.0266 5.49341 43.0266H15.8964C16.317 43.0266 16.6581 42.6856 16.6581 42.2649C16.6581 41.8442 16.317 41.5032 15.8964 41.5032Z" fill="black"/>
<path d="M12.9864 44.6733H5.49341C5.07274 44.6733 4.73169 45.0143 4.73169 45.435C4.73169 45.8557 5.07274 46.1967 5.49341 46.1967H12.9864C13.4071 46.1967 13.7481 45.8557 13.7481 45.435C13.7481 45.0143 13.4071 44.6733 12.9864 44.6733Z" fill="black"/>
<path d="M46.5067 5.18066H36.1038C35.6831 5.18066 35.342 5.52171 35.342 5.94238C35.342 6.36305 35.6831 6.7041 36.1038 6.7041H46.5067C46.9274 6.7041 47.2684 6.36305 47.2684 5.94238C47.2684 5.52171 46.9274 5.18066 46.5067 5.18066Z" fill="black"/>
<path d="M36.1038 8.35077C35.6831 8.35077 35.342 8.69182 35.342 9.11249C35.342 9.53316 35.6831 9.87421 36.1038 9.87421H43.5967C44.0174 9.87421 44.3585 9.53316 44.3585 9.11249C44.3585 8.69182 44.0174 8.35077 43.5967 8.35077H36.1038Z" fill="black"/>
</svg>
