<svg width="52" height="52" viewBox="0 0 52 52" fill="none" xmlns="http://www.w3.org/2000/svg">
<path d="M2.79346 0.761719H24.1311C25.253 0.761719 26.1624 1.67111 26.1624 2.79297V49.207C26.1624 50.3289 25.253 51.2383 24.1311 51.2383H2.79346C1.6716 51.2383 0.762207 50.3289 0.762207 49.207V2.79297C0.762207 1.67111 1.6716 0.761719 2.79346 0.761719Z" fill="#E9F1FF"/>
<path d="M24.1311 0.761719H20.0686C21.1905 0.761719 22.0999 1.67111 22.0999 2.79297V49.207C22.0999 50.3289 21.1905 51.2383 20.0686 51.2383H24.1311C25.253 51.2383 26.1624 50.3289 26.1624 49.207V2.79297C26.1624 1.67111 25.253 0.761719 24.1311 0.761719Z" fill="#DDE9FF"/>
<path d="M26.1624 22.9906V2.79297C26.1624 1.67111 25.253 0.761719 24.1311 0.761719H2.79346C1.6716 0.761719 0.762207 1.67111 0.762207 2.79297V22.9906H26.1624Z" fill="#CFDFFF"/>
<path d="M24.1311 0.761719H2.79346H20.0687C21.1906 0.761719 22.1 1.67111 22.1 2.79297V22.9906H26.1625V2.79297C26.1624 1.67111 25.253 0.761719 24.1311 0.761719Z" fill="#C1D6FF"/>
<path d="M16.4815 10.0154C16.4815 8.28306 15.0226 6.89145 13.2664 7.00235C11.7532 7.09792 10.5279 8.33658 10.4475 9.85067C10.3857 11.0132 10.9821 12.0414 11.8973 12.5972C11.9916 12.6544 12.0476 12.7578 12.0476 12.8681V16.4096C12.0476 17.1909 12.681 17.8242 13.4623 17.8242C14.2436 17.8242 14.8769 17.1909 14.8769 16.4096V12.868C14.8769 12.7572 14.934 12.6539 15.0287 12.5964C15.8997 12.0668 16.4815 11.1092 16.4815 10.0154Z" fill="#7E66FF"/>
<path d="M36.4075 50.8533L22.4054 44.9306C20.7911 44.2478 20.036 42.3857 20.7188 40.7713L31.1392 16.136C31.822 14.5218 33.6842 13.7667 35.2985 14.4495L49.3006 20.3722C50.9149 21.055 51.67 22.9171 50.9872 24.5315L40.5668 49.1668C39.884 50.781 38.0218 51.5361 36.4075 50.8533Z" fill="#90EF96"/>
<path d="M49.3006 20.3722L45.8547 18.9146C47.469 19.5974 48.2241 21.4595 47.5413 23.0737L37.1208 47.7091C36.438 49.3235 34.5758 50.0785 32.9615 49.3957L22.4053 44.9305L36.4074 50.8532C38.0216 51.536 39.8838 50.7809 40.5667 49.1667L50.9871 24.5314C51.67 22.9171 50.915 21.055 49.3006 20.3722Z" fill="#87DE8D"/>
<path d="M36.0142 14.7674L40.2162 16.5468L27.3089 47.028L23.1068 45.2486L36.0142 14.7674Z" fill="#7E66FF"/>
<path d="M13.4624 18.5859C14.6624 18.5859 15.6388 17.6096 15.6388 16.4096V13.1071C16.6481 12.3985 17.2432 11.2607 17.2432 10.0154C17.2432 5.24764 9.93754 5.09255 9.68679 9.81023C9.61722 11.1194 10.225 12.3598 11.2859 13.1069V16.4096C11.286 17.6096 12.2623 18.5859 13.4624 18.5859ZM11.2082 9.89118C11.3574 7.08551 15.7199 7.13741 15.7199 10.0155C15.7199 10.8102 15.3137 11.5318 14.6328 11.9458C14.3136 12.14 14.1153 12.4935 14.1153 12.8681V16.4097C14.1153 17.2536 12.8093 17.2536 12.8093 16.4097V12.8682C12.8093 12.4931 12.6114 12.1398 12.2927 11.9463C11.5794 11.5129 11.1639 10.7254 11.2082 9.89118Z" fill="black"/>
<path d="M13.2947 41.1409C12.3144 41.1409 12.3128 42.6644 13.2947 42.6644C14.2748 42.6644 14.2765 41.1409 13.2947 41.1409Z" fill="black"/>
<path d="M9.95838 38.4367C9.2834 39.1098 10.3281 40.2191 11.034 39.5156C12.3729 38.1808 14.5516 38.1808 15.8905 39.5156C16.5711 40.194 17.6529 39.1215 16.9662 38.4367C15.0341 36.5105 11.8905 36.5105 9.95838 38.4367Z" fill="black"/>
<path d="M7.67616 35.0286C7.00117 35.7017 8.04584 36.8109 8.7518 36.1075C11.3492 33.5179 15.5756 33.5179 18.173 36.1075C18.8536 36.7859 19.9354 35.7134 19.2487 35.0286C16.0581 31.8479 10.8667 31.8479 7.67616 35.0286Z" fill="black"/>
<path d="M49.5974 19.6707L35.5952 13.748C33.5968 12.9027 31.2831 13.8408 30.4377 15.8394L26.924 24.1461V2.79297C26.924 1.27969 25.6382 0 24.131 0H2.79346C1.28556 0 0.000488281 1.27887 0.000488281 2.79297V8.07503C0.000488281 9.0283 1.52393 9.07166 1.52393 8.07503V2.79297C1.52393 2.0929 2.09339 1.52344 2.79346 1.52344H24.1311C24.8312 1.52344 25.4007 2.0929 25.4007 2.79297V22.2289H1.52393V12.4102C1.52393 11.457 0.000488281 11.4136 0.000488281 12.4102V49.207C0.000488281 50.747 1.25336 52 2.79346 52H24.1311C25.6712 52 26.9241 50.747 26.9241 49.207V47.6691L27.0324 47.7149C27.0326 47.715 27.0328 47.715 27.033 47.7151L36.1107 51.5549C38.0805 52.3882 40.4349 51.4338 41.2683 49.4635L42.6609 46.1709C43.0322 45.293 41.646 44.6595 41.2579 45.5774L39.8652 48.8699C39.3472 50.0948 37.9292 50.6697 36.7043 50.1518L28.3274 46.6085L40.6271 17.5304L49.004 21.0737C50.2288 21.5919 50.8039 23.0099 50.2857 24.2347L42.9379 41.6058C42.5666 42.4837 43.9528 43.117 44.341 42.1993L51.6888 24.8283C52.5341 22.8297 51.596 20.5161 49.5974 19.6707ZM25.4007 49.207C25.4007 49.9071 24.8312 50.4766 24.1311 50.4766H2.79346C2.09339 50.4766 1.52393 49.9071 1.52393 49.207V23.7523H25.4007C25.4007 24.9909 25.4201 27.7017 25.4201 27.7017L20.0173 40.4745C19.1719 42.473 20.1102 44.7867 22.1086 45.632L23.5968 46.2615L25.4007 47.0246V49.207ZM26.9243 46.015L24.1253 44.8311L36.425 15.7531L39.2239 16.9369L26.9243 46.015ZM22.7223 44.2376L22.702 44.229C21.4772 43.7109 20.9022 42.293 21.4203 41.068L31.8408 16.4328C32.3589 15.2079 33.7768 14.6331 35.0018 15.151L35.022 15.1595L22.7223 44.2376Z" fill="black"/>
<path d="M41.0247 33.8279C42.2882 33.8279 43.4547 33.0512 43.9455 31.8906C44.6266 30.2802 43.8706 28.416 42.2603 27.7349C40.6741 27.064 38.7731 27.8396 38.1047 29.42C37.545 30.7431 37.9341 32.296 39.124 33.1944L36.3826 39.6753C36.0143 40.5466 37.3891 41.2062 37.7857 40.2688L38.2066 39.2739L39.3473 39.7564C40.2108 40.1214 40.8678 38.7455 39.9409 38.3534L38.8 37.8709L40.5272 33.7877C40.6921 33.8141 40.8584 33.8279 41.0247 33.8279ZM39.5077 30.0135C39.851 29.2016 40.8474 28.7915 41.6668 29.138C42.5035 29.4918 42.8962 30.4604 42.5424 31.2972C42.199 32.1087 41.2021 32.5188 40.3832 32.1726C39.5719 31.8293 39.1613 30.8322 39.5077 30.0135Z" fill="black"/>
</svg>
