<svg width="52" height="52" viewBox="0 0 52 52" fill="none" xmlns="http://www.w3.org/2000/svg">
<path d="M35.3844 13.2379L32.7989 19.9735L31.5308 19.4869C30.6868 19.163 30.2652 18.2162 30.5891 17.3723L32.0015 13.6928C32.3254 12.8489 33.2721 12.4274 34.1159 12.7512L35.3844 13.2379Z" fill="#FFE563"/>
<path d="M47.7982 28.66H51.2615V51.3498H0.738525V28.66H33.3319" fill="#B3E897"/>
<path d="M40.6825 28.829C37.8391 28.829 35.5339 31.1341 35.5339 33.9776C35.5339 36.821 37.839 39.1261 40.6825 39.1261C43.5259 39.1261 45.831 36.8211 45.831 33.9776C45.8309 31.1341 43.5259 28.829 40.6825 28.829ZM40.6825 35.5901C39.7934 35.5901 39.07 34.8667 39.07 33.9776C39.07 33.0885 39.7934 32.3651 40.6825 32.3651C41.5716 32.3651 42.295 33.0885 42.295 33.9776C42.295 34.8667 41.5716 35.5901 40.6825 35.5901Z" fill="white"/>
<path d="M18.738 51.3498H0.907715C0.907715 49.8944 2.08754 48.4688 3.54296 48.4688H16.1028C17.5582 48.4686 18.738 49.8944 18.738 51.3498Z" fill="#FF416A"/>
<path d="M6.86328 42.1346H12.7819V48.4687H6.86328V42.1346Z" fill="#AB632E"/>
<path d="M17.1464 42.1346H2.49902V38.4911L9.8227 33.5143L17.1464 38.4911V42.1346Z" fill="#FF416A"/>
<path d="M24.7908 6.56659C26.3892 6.56659 27.685 5.2708 27.685 3.67231C27.685 2.07382 26.3891 0.778137 24.7908 0.778137C23.1924 0.778137 21.8965 2.07393 21.8965 3.67241V6.56669H24.7908V6.56659Z" fill="#FFE563"/>
<path d="M18.3017 9.07796C17.4062 9.07796 16.6804 8.35214 16.6804 7.45673C16.6804 6.56143 17.4062 5.8355 18.3017 5.8355C18.3892 5.8355 18.4751 5.84271 18.5589 5.85601C18.5462 5.76025 18.5391 5.66267 18.5391 5.56346C18.5391 4.33987 19.531 3.3479 20.7546 3.3479C21.9783 3.3479 22.9702 4.33987 22.9702 5.56346C22.9702 5.66277 22.963 5.76025 22.9504 5.85601C23.0342 5.84261 23.1201 5.8355 23.2076 5.8355C24.103 5.8355 24.8288 6.56133 24.8288 7.45673C24.8288 8.35214 24.103 9.07796 23.2076 9.07796H18.3017Z" fill="#D2F6FF"/>
<path d="M47.5172 7.69015C48.4126 7.69015 49.1384 6.96432 49.1384 6.06891C49.1384 5.17361 48.4126 4.44768 47.5172 4.44768C47.4296 4.44768 47.3437 4.45489 47.26 4.46819C47.2727 4.37244 47.2798 4.27485 47.2798 4.17565C47.2798 2.95206 46.2878 1.96008 45.0642 1.96008C43.8405 1.96008 42.8486 2.95206 42.8486 4.17565C42.8486 4.27496 42.8558 4.37244 42.8684 4.46819C42.7847 4.45479 42.6988 4.44768 42.6112 4.44768C41.7158 4.44768 40.99 5.17351 40.99 6.06891C40.99 6.96432 41.7158 7.69015 42.6112 7.69015H47.5172Z" fill="#D2F6FF"/>
<path d="M32.55 46.5071C32.55 47.9575 31.3741 49.1334 29.9237 49.1334C28.4732 49.1334 27.2974 47.9575 27.2974 46.5071C27.2974 45.0567 28.4732 39.5657 29.9237 39.5657C31.3741 39.5657 32.55 45.0567 32.55 46.5071Z" fill="#45BF64"/>
<path d="M25.3957 38.6662C25.3957 40.1166 24.2198 41.2925 22.7694 41.2925C21.3189 41.2925 20.1431 40.1166 20.1431 38.6662C20.1431 37.2157 21.3189 31.7248 22.7694 31.7248C24.2199 31.7249 25.3957 37.2157 25.3957 38.6662Z" fill="#45BF64"/>
<path d="M51.2336 23.0516C51.2336 24.502 50.0577 25.6779 48.6073 25.6779C47.1568 25.6779 45.981 24.502 45.981 23.0516C45.981 21.6012 47.1568 16.1102 48.6073 16.1102C50.0577 16.1102 51.2336 21.6012 51.2336 23.0516Z" fill="#45BF64"/>
<path d="M51.2615 27.8984H49.36C49.3651 27.8628 49.3686 27.8265 49.3686 27.7895V26.3521C50.871 26.0056 51.9949 24.6578 51.9949 23.0516C51.9949 22.2585 51.6947 20.4569 51.1924 18.8143C50.8412 17.6659 50.1732 15.3487 48.607 15.3487C47.0413 15.3487 46.3749 17.6593 46.0216 18.8143C45.5193 20.4569 45.2191 22.2586 45.2191 23.0516C45.2191 24.6578 46.343 26.0055 47.8455 26.3521V27.6871C47.3593 27.1342 46.7985 26.6411 46.2058 26.2059C44.65 25.0637 43.3242 24.7956 43.3242 24.7956L40.9379 11.3055C40.4765 8.59197 36.5899 8.17402 35.5793 10.7535L34.9833 12.2682L34.3887 12.0401C33.1543 11.5664 31.7644 12.1853 31.2904 13.4197L29.878 17.0992C29.4135 18.3096 30.0447 19.7322 31.2579 20.1977L31.784 20.3996C30.4908 23.614 25.7333 23.3374 24.5756 20.1698L22.421 14.4064C21.4004 11.6763 17.3747 11.6264 16.3152 14.3755L16.049 15.066C15.8944 15.4676 15.3119 15.4343 15.2037 15.0181L14.2267 11.2618C13.2866 7.64661 7.99262 7.60691 6.99486 11.2047L2.38968 27.8984H0.738496C-0.246165 27.8984 -0.246165 29.4216 0.738496 29.4216H32.3049C31.5653 30.776 31.1446 32.3285 31.1446 33.9776C31.1446 37.5557 33.1254 40.6792 36.0476 42.311L34.6947 45.2634H33.1917C33.06 44.3956 32.8243 43.3014 32.5088 42.2699C31.7857 39.9055 30.9643 38.8043 29.9234 38.8043C28.8827 38.8043 28.0611 39.9056 27.3382 42.2699C26.8358 43.9124 26.5357 45.7141 26.5357 46.5072C26.5357 48.1134 27.6595 49.4611 29.1619 49.8077V51.2451C29.1619 52.2297 30.685 52.2297 30.685 51.2451V49.8077C32.0994 49.4815 33.1773 48.2677 33.2989 46.7865H48.2232C49.2079 46.7865 49.2079 45.2634 48.2232 45.2634H46.6701L45.3172 42.311C48.3097 40.64 50.2203 37.4184 50.2203 33.9776C50.2203 32.3286 49.7995 30.7761 49.06 29.4216H51.2615C52.2461 29.4216 52.2461 27.8984 51.2615 27.8984ZM30.685 48.2075V45.8525C30.685 45.4319 30.3441 45.091 29.9234 45.091C29.5027 45.091 29.1619 45.4319 29.1619 45.8525V48.2075C28.5127 47.9155 28.0588 47.2639 28.0588 46.5071C28.0588 45.905 28.3105 44.3838 28.7171 42.9761C29.2393 41.1683 29.7242 40.5044 29.9234 40.3506C30.1228 40.5044 30.6075 41.1682 31.1299 42.976C31.5366 44.3838 31.7882 45.905 31.7882 46.5071C31.7882 47.2639 31.3343 47.9155 30.685 48.2075ZM46.7423 23.0516C46.7423 22.4495 46.994 20.9284 47.4007 19.5206C47.6212 18.7571 47.9206 17.4247 48.607 16.8951C49.2904 17.4223 49.6012 18.7862 49.8134 19.5206C50.22 20.9284 50.4718 22.4496 50.4718 23.0516C50.4718 23.8084 50.0179 24.46 49.3686 24.752V22.397C49.3686 21.4124 47.8455 21.4124 47.8455 22.397V24.752C47.1962 24.46 46.7423 23.8084 46.7423 23.0516ZM45.0693 33.9776C45.0693 34.9235 44.7674 35.7996 44.2563 36.5168L42.796 35.0565C43.1352 34.3947 43.1409 33.5939 42.8109 32.9276L44.2745 31.464C44.7746 32.1764 45.0693 33.043 45.0693 33.9776ZM40.6824 41.9923C38.7468 41.9923 36.9693 41.3024 35.5827 40.1559L37.0777 38.6609C39.1597 40.2709 42.1717 40.2721 44.2617 38.6763L45.7596 40.1741C44.3761 41.3096 42.6077 41.9923 40.6824 41.9923ZM41.2585 34.596C41.2475 34.607 41.2378 34.6187 41.2276 34.6302C41.0799 34.7539 40.8898 34.8285 40.6824 34.8285C40.2132 34.8285 39.8314 34.4468 39.8314 33.9776C39.8314 33.5084 40.2132 33.1267 40.6824 33.1267C40.9092 33.1267 41.115 33.2164 41.2677 33.3615C41.273 33.3671 41.2776 33.373 41.283 33.3785C41.2882 33.3837 41.2939 33.388 41.2992 33.3931C41.4439 33.5457 41.5333 33.7513 41.5333 33.9777C41.5333 34.1961 41.4499 34.3949 41.3141 34.5458C41.295 34.5614 41.2763 34.5781 41.2585 34.596ZM41.7344 31.8501C41.0678 31.519 40.266 31.5243 39.6034 31.8639L38.1431 30.4036C39.6388 29.3379 41.6952 29.331 43.1977 30.3866L41.7344 31.8501ZM39.6324 36.1061C40.2789 36.4264 41.0547 36.4316 41.7052 36.1197L43.1721 37.5867C41.6829 38.6173 39.6494 38.6146 38.1668 37.5718L39.6324 36.1061ZM44.2863 29.2982C42.1841 27.6754 39.1503 27.6828 37.0557 29.3161L35.5592 27.8195C38.4843 25.3818 42.8449 25.3692 45.7837 27.8006L44.2863 29.2982ZM39.4371 11.566L41.7243 24.4968C40.7479 24.3902 39.7469 24.4345 38.7841 24.6297V10.6541C39.1204 10.8349 39.3687 11.1631 39.4371 11.566ZM37.261 10.8951V25.0747C36.2706 25.4566 35.3595 25.9992 34.5597 26.6705V17.564C34.9355 16.5222 35.3504 15.4954 35.7559 14.4648C36.2016 13.3319 36.5401 11.8899 37.261 10.8951ZM31.8036 18.7758C31.3236 18.5379 31.1558 18.1611 31.3001 17.6451L32.7124 13.9657C32.9846 13.2566 33.8697 13.3562 34.4004 13.676L33.2397 16.6999L32.3417 18.9823L31.8036 18.7758ZM33.0365 21.335V27.8984H30.3352V23.8327C31.4806 23.3533 32.4399 22.4841 33.0365 21.335ZM28.8122 24.2225V27.8984H26.1108V23.8159C26.7696 24.098 27.489 24.2527 28.2324 24.2527C28.4278 24.2528 28.6213 24.2426 28.8122 24.2225ZM23.1469 20.6981C23.4523 21.5339 23.9542 22.2613 24.5877 22.837V27.8984H21.8863V17.3263L23.1469 20.6981ZM15.5225 16.871C15.7361 16.8833 15.9431 16.8624 16.1387 16.8126V19.8765C16.1387 20.8612 17.6618 20.8612 17.6618 19.8765V15.1168C18.0119 13.9826 19.3552 13.418 20.3632 14.1265V27.8983H17.6618V23.4464C17.6618 22.4617 16.1387 22.4617 16.1387 23.4464V27.8983H13.4373V14.2783C13.7417 15.4481 14.0334 16.7865 15.5225 16.871ZM11.9142 10.4141V27.8984H9.21296V10.4767C9.99027 9.85171 11.1105 9.82552 11.9142 10.4141ZM7.68982 14.4133V27.8984H3.96969L7.68982 14.4133ZM34.3588 29.062C34.4012 29.0081 34.4435 28.9543 34.4859 28.9003L35.9836 30.3981C34.9201 31.7909 34.5278 33.632 34.9297 35.3376C35.1551 36.2962 36.6381 35.9468 36.4122 34.9884C36.1317 33.7954 36.3753 32.4963 37.0733 31.4878L38.5403 32.9548C38.228 33.6059 38.2336 34.3826 38.5549 35.0296L34.5056 39.0789C32.1402 36.22 32.0785 31.989 34.3588 29.062ZM44.9946 45.2633H36.3702L37.4324 42.9449C38.4473 43.3139 39.5417 43.5154 40.6824 43.5154C41.823 43.5154 42.9175 43.3139 43.9323 42.9449L44.9946 45.2633ZM46.8404 39.1007L45.3438 37.6042C46.9763 35.5106 46.9849 32.4778 45.3631 30.3755L46.8608 28.8778C49.2908 31.8168 49.2776 36.1762 46.8404 39.1007Z" fill="black"/>
<path d="M16.1027 47.7071H13.5438V42.8963H14.5932V45.4695C14.5932 46.4542 16.1164 46.4542 16.1164 45.4695V42.8963H17.1466C17.5672 42.8963 17.9082 42.5553 17.9082 42.1347V38.4911C17.9082 38.2388 17.7833 38.003 17.5746 37.8612L10.2509 32.8845C9.99261 32.7089 9.65315 32.7089 9.39482 32.8845L2.07115 37.8612C1.86248 38.003 1.73758 38.2388 1.73758 38.4911V42.1347C1.73758 42.5553 2.07856 42.8963 2.49915 42.8963H3.5294V45.4695C3.5294 46.4542 5.05255 46.4542 5.05255 45.4695V42.8963H6.10189V47.7071H3.54291C1.66985 47.7071 0.145996 49.231 0.145996 51.104C0.145996 51.5246 0.486977 51.8656 0.907568 51.8656H12.0008C12.9855 51.8656 12.9855 50.3424 12.0008 50.3424H1.831C2.12344 49.6877 2.78083 49.2302 3.54291 49.2302H16.1027C16.8648 49.2302 17.5222 49.6877 17.8147 50.3424H15.9032C14.9186 50.3424 14.9186 51.8656 15.9032 51.8656H18.738C19.1586 51.8656 19.4996 51.5246 19.4996 51.104C19.4996 49.231 17.9757 47.7071 16.1027 47.7071ZM3.26072 38.8943L9.82283 34.4351L16.3849 38.8943V41.3732H12.7822H6.86346H3.26072V38.8943ZM7.62504 47.7071V42.8963H9.06126V45.4695C9.06126 46.4542 10.5844 46.4542 10.5844 45.4695V42.8963H12.0206V47.7071H7.62504Z" fill="black"/>
<path d="M18.3018 9.83953H23.2076C24.5215 9.83953 25.5904 8.77059 25.5904 7.45673C25.5904 7.38412 25.587 7.31223 25.5806 7.24125C27.2179 6.87915 28.4466 5.41693 28.4466 3.67233C28.4466 1.6565 26.8067 0.0164795 24.7908 0.0164795C23.1357 0.0164795 21.7347 1.12248 21.2861 2.63405C21.1136 2.60288 20.9361 2.58622 20.7547 2.58622C19.2619 2.58622 18.0223 3.6904 17.8098 5.1249C16.7312 5.35225 15.9189 6.31143 15.9189 7.45652C15.9189 8.77059 16.9879 9.83953 18.3018 9.83953ZM24.7908 1.53972C25.9668 1.53972 26.9235 2.49646 26.9235 3.67243C26.9235 4.80565 26.0341 5.73273 24.9172 5.79863C24.5928 5.46436 24.1717 5.22461 23.6996 5.1251C23.5922 4.401 23.2231 3.76138 22.692 3.30515C22.8669 2.30394 23.7403 1.53972 24.7908 1.53972ZM18.3018 6.59717C18.347 6.59717 18.3931 6.60092 18.4388 6.60813C18.6763 6.64621 18.9178 6.56955 19.0902 6.4017C19.2627 6.23385 19.3455 5.99451 19.3139 5.75599C19.3052 5.68978 19.3007 5.6249 19.3007 5.56346C19.3007 4.76168 19.953 4.10947 20.7547 4.10947C21.0037 4.10947 21.2383 4.17253 21.4434 4.28341C21.4821 4.31215 21.5234 4.33723 21.5673 4.35825C21.954 4.61982 22.2088 5.06245 22.2088 5.56356C22.2088 5.62561 22.2044 5.68877 22.1955 5.75649C22.164 5.99492 22.247 6.23425 22.4194 6.4019C22.5917 6.56965 22.8337 6.64611 23.0707 6.60813C23.1164 6.60082 23.1625 6.59717 23.2078 6.59717C23.6818 6.59717 24.0675 6.98273 24.0675 7.45673C24.0675 7.93073 23.6818 8.31639 23.2078 8.31639H18.302C17.828 8.31639 17.4423 7.93073 17.4423 7.45673C17.4423 6.98273 17.8277 6.59717 18.3018 6.59717Z" fill="black"/>
<path d="M42.6113 8.45175H43.9017C44.3224 8.45175 44.6633 8.11077 44.6633 7.69018C44.6633 7.26959 44.3224 6.92861 43.9017 6.92861H42.6113C42.1373 6.92861 41.7517 6.54295 41.7517 6.06895C41.7517 5.59495 42.1373 5.20939 42.6113 5.20939C42.6565 5.20939 42.7026 5.21315 42.7483 5.22036C42.9859 5.25823 43.2272 5.18177 43.3995 5.01422C43.5718 4.84658 43.6549 4.60744 43.6236 4.36902C43.6146 4.30068 43.6102 4.23742 43.6102 4.17568C43.6102 3.3739 44.2625 2.72169 45.0642 2.72169C45.866 2.72169 46.5183 3.374 46.5183 4.17568C46.5183 4.23742 46.5139 4.30068 46.5049 4.36902C46.4736 4.60744 46.5568 4.84658 46.7291 5.01422C46.9014 5.18187 47.1429 5.25833 47.3803 5.22025C47.4258 5.21294 47.4718 5.20929 47.5172 5.20929C47.9912 5.20929 48.3768 5.59484 48.3768 6.06885C48.3768 6.54285 47.9912 6.92851 47.5172 6.92851C47.0965 6.92851 46.7556 7.26949 46.7556 7.69008C46.7556 8.11067 47.0965 8.45165 47.5172 8.45165C48.831 8.45165 49.9 7.38271 49.9 6.06885C49.9 4.92365 49.0878 3.96457 48.0092 3.73722C47.7966 2.30272 46.557 1.19855 45.0642 1.19855C43.5715 1.19855 42.3319 2.30272 42.1192 3.73722C41.0407 3.96457 40.2285 4.92375 40.2285 6.06885C40.2285 7.38281 41.2975 8.45175 42.6113 8.45175Z" fill="black"/>
<path d="M22.7695 30.9632C21.7287 30.9632 20.9072 32.0644 20.1841 34.4288C19.6818 36.0713 19.3816 37.8731 19.3816 38.666C19.3816 40.2722 20.5055 41.6199 22.0079 41.9665V43.4038C22.0079 44.3885 23.531 44.3885 23.531 43.4038V41.9667C25.0335 41.6201 26.1573 40.2724 26.1573 38.6662C26.1573 37.8732 25.8572 36.0715 25.3549 34.429C24.6318 32.0644 23.8102 30.9632 22.7695 30.9632ZM23.531 40.3666V38.0116C23.531 37.0269 22.0079 37.0269 22.0079 38.0116V40.3666C21.3586 40.0746 20.9047 39.423 20.9047 38.6662C20.9047 38.0642 21.1565 36.543 21.5631 35.1352C22.0854 33.3274 22.5702 32.6634 22.7695 32.5097C22.9687 32.6634 23.4536 33.3274 23.9758 35.1352C24.3825 36.543 24.6342 38.0642 24.6342 38.6661C24.6342 39.4229 24.1803 40.0745 23.531 40.3666Z" fill="black"/>
</svg>
