<svg width="52" height="52" viewBox="0 0 52 52" fill="none" xmlns="http://www.w3.org/2000/svg">
<path d="M8.33325 2.44833V8.56554H11.6983V4.97216C11.6983 4.50751 12.075 4.13092 12.5396 4.13092H17.5872C18.0519 4.13092 18.4285 4.50761 18.4285 4.97216V8.56554H21.7935V2.44833C21.7935 1.51904 21.0402 0.765747 20.1109 0.765747H10.0156C9.08654 0.765747 8.33325 1.51904 8.33325 2.44833V2.44833Z" fill="#F2F2FC"/>
<path d="M9.3623 4.97216V8.56555H11.6982V4.97216C11.6982 4.50751 12.0749 4.13092 12.5395 4.13092H10.2035C9.739 4.13082 9.3623 4.50751 9.3623 4.97216V4.97216Z" fill="#E2D9FB"/>
<path d="M20.1111 0.765747H17.7751C18.7043 0.765747 19.4577 1.51904 19.4577 2.44833V8.56554H21.7937V2.44833C21.7936 1.51904 21.0403 0.765747 20.1111 0.765747V0.765747Z" fill="#E2D9FB"/>
<path d="M5.80938 27.6866L0.761719 22.6389V12.5436L5.80938 7.49597H24.3174L29.3651 12.5436V22.6389L24.3174 27.6866H5.80938Z" fill="#9F5F4B"/>
<path d="M27.0291 24.9749L29.365 22.639V12.5436L27.0291 10.2077V24.9749Z" fill="#724435"/>
<path d="M4.18438 12.5436H0.761719V9.12097C0.761719 8.22346 1.48921 7.49597 2.38672 7.49597H5.80938V10.9186C5.80938 11.816 5.08188 12.5436 4.18438 12.5436Z" fill="#FFDE55"/>
<path d="M24.3174 10.9186V7.49597H27.74C28.6375 7.49597 29.365 8.22346 29.365 9.12097V12.5436H25.9424C25.045 12.5436 24.3174 11.816 24.3174 10.9186Z" fill="#FFDE55"/>
<path d="M25.9424 22.6389H29.365V26.0616C29.365 26.959 28.6375 27.6866 27.74 27.6866H24.3174V24.2639C24.3174 23.3664 25.045 22.6389 25.9424 22.6389V22.6389Z" fill="#FFDE55"/>
<path d="M5.80938 24.2639V27.6866H2.38672C1.48921 27.6866 0.761719 26.959 0.761719 26.0616V22.6389H4.18438C5.08188 22.6389 5.80938 23.3664 5.80938 24.2639V24.2639Z" fill="#FFDE55"/>
<path d="M27.74 7.49597H25.4041C26.3015 7.49597 27.0291 8.22346 27.0291 9.12097V12.5436H29.365V9.12097C29.365 8.22346 28.6375 7.49597 27.74 7.49597Z" fill="#FF9F22"/>
<path d="M27.0291 22.639V26.0616C27.0291 26.959 26.3015 27.6866 25.4041 27.6866H27.74C28.6374 27.6866 29.365 26.959 29.365 26.0616V22.639H27.0291Z" fill="#FF9F22"/>
<path d="M39.4604 32.8528C46.0306 32.8528 51.3568 27.5266 51.3568 20.9564C51.3568 14.3861 46.0306 9.05994 39.4604 9.05994C32.8902 9.05994 27.564 14.3861 27.564 20.9564C27.564 27.5266 32.8902 32.8528 39.4604 32.8528Z" fill="#9EE2F8"/>
<path d="M39.4604 9.05994C39.0461 9.05994 38.6367 9.08126 38.2332 9.1226C44.2268 9.73685 48.9024 14.8006 48.9024 20.9564C48.9024 27.1122 44.2268 32.1759 38.2332 32.7901C38.6367 32.8315 39.0461 32.8528 39.4604 32.8528C46.0306 32.8528 51.3569 27.5265 51.3569 20.9564C51.3569 14.3862 46.0307 9.05994 39.4604 9.05994V9.05994Z" fill="#6AA9FF"/>
<path d="M33.5714 29.3692C34.036 29.3692 34.4126 28.9925 34.4126 28.528V26.8454C34.4126 26.3807 34.0359 26.0042 33.5714 26.0042H18.4284C17.9638 26.0042 17.5872 26.3808 17.5872 26.8454V28.528C17.5872 28.9926 17.9639 29.3692 18.4284 29.3692H33.5714Z" fill="#9EE2F8"/>
<path d="M33.5715 26.004H31.2356C31.7002 26.004 32.0768 26.3807 32.0768 26.8453V28.5279C32.0768 28.9925 31.7001 29.3691 31.2356 29.3691H33.5715C34.0362 29.3691 34.4128 28.9925 34.4128 28.5279V26.8453C34.4128 26.3807 34.0362 26.004 33.5715 26.004Z" fill="#6AA9FF"/>
<path d="M28.5176 34.3286L27.7943 24.2017C27.7314 23.3213 26.9988 22.6391 26.116 22.6391H25.8842C25.0014 22.6391 24.2689 23.3213 24.2059 24.2017L23.4827 34.3264L28.5176 34.3286Z" fill="#F2F2FC"/>
<path d="M25.4126 24.2016L26.1359 34.3275L28.5176 34.3285L27.7942 24.2016C27.7314 23.3212 26.9987 22.639 26.116 22.639H25.8843C25.4765 22.639 25.1018 22.7858 24.8093 23.0293C25.15 23.3128 25.3788 23.7278 25.4126 24.2016V24.2016Z" fill="#E2D9FB"/>
<path d="M35.433 44.5121L40.2791 43.9962L44.8532 43.5093L49.7339 42.9897C50.5894 42.8986 51.2384 42.1769 51.2384 41.3166V39.6753C51.2384 39.2107 50.8617 38.8341 50.3971 38.8341H34.1043H17.8957H1.60296C1.13831 38.8341 0.761719 39.2108 0.761719 39.6753V41.3166C0.761719 42.1769 1.4107 42.8986 2.26616 42.9897L7.14685 43.5093L11.721 43.9962L16.5671 44.5121H35.433Z" fill="#9EE2F8"/>
<path d="M35.6982 46.3681L35.0345 41.722C34.6423 38.9764 33.0044 36.5656 30.5962 35.1895C29.9398 34.8145 29.2413 34.5261 28.5184 34.3275L28.5176 34.3285L26.3756 34.211L24.8321 34.0659C23.6287 34.2048 22.4619 34.5849 21.4039 35.1895C18.9957 36.5656 17.3578 38.9764 16.9656 41.722L16.3019 46.3681C16.0719 47.9781 17.0262 49.5221 18.5691 50.0365C18.8541 50.1314 19.1405 50.2204 19.4281 50.3042H32.5721C32.8596 50.2204 33.1461 50.1315 33.4311 50.0365C34.974 49.5221 35.9282 47.9781 35.6982 46.3681Z" fill="#F2F2FC"/>
<path d="M30.206 41.9884H21.7941C21.2468 41.9884 20.8452 41.4741 20.9779 40.9431L21.3986 39.2605C21.4922 38.8859 21.8287 38.6233 22.2148 38.6233H29.7854C30.1715 38.6233 30.5079 38.886 30.6016 39.2605L31.0223 40.9431C31.1549 41.4739 30.7533 41.9884 30.206 41.9884V41.9884Z" fill="#9EE2F8"/>
<path d="M12.2932 47.4536C12.9901 45.7308 12.1585 43.7692 10.4357 43.0723C8.71289 42.3753 6.75131 43.207 6.05438 44.9298C5.35745 46.6526 6.18909 48.6142 7.9119 49.3111C9.63471 50.008 11.5963 49.1764 12.2932 47.4536Z" fill="#3F4B4B"/>
<path d="M46.0988 46.9907C46.5262 45.1824 45.4068 43.37 43.5985 42.9425C41.7902 42.5151 39.9778 43.6345 39.5503 45.4428C39.1229 47.2511 40.2423 49.0635 42.0506 49.4909C43.8589 49.9184 45.6713 48.799 46.0988 46.9907Z" fill="#3F4B4B"/>
<path d="M50.3969 38.8341H48.061C48.5256 38.8341 48.9022 39.2108 48.9022 39.6753V41.5822C48.9022 42.3659 48.3628 43.0331 47.6201 43.2147L49.7337 42.9897C50.5892 42.8986 51.2382 42.1769 51.2382 41.3166V39.6753C51.2382 39.2107 50.8616 38.8341 50.3969 38.8341V38.8341Z" fill="#6AA9FF"/>
<path d="M42.8254 42.8296C42.4147 42.8296 42.0214 42.9034 41.6575 43.0381C42.9402 43.5129 43.8546 44.7469 43.8546 46.1947C43.8546 47.6424 42.9402 48.8764 41.6575 49.3513C42.0214 49.486 42.4147 49.5598 42.8254 49.5598C44.6839 49.5598 46.1905 48.0533 46.1905 46.1948C46.1905 44.3362 44.6839 42.8296 42.8254 42.8296Z" fill="#323C3D"/>
<path d="M9.17456 42.8296C8.76384 42.8296 8.37049 42.9034 8.00659 43.0381C9.28933 43.5129 10.2037 44.7469 10.2037 46.1947C10.2037 47.6424 9.28922 48.8764 8.00659 49.3513C8.37049 49.486 8.76384 49.5598 9.17456 49.5598C11.0331 49.5598 12.5396 48.0533 12.5396 46.1948C12.5397 44.3362 11.0331 42.8296 9.17456 42.8296Z" fill="#323C3D"/>
<path d="M35.6982 46.3682L35.0345 41.7221C34.6423 38.9765 33.0044 36.5657 30.5962 35.1896C29.2382 34.4136 27.7012 34.0054 26.137 34.0054H25.863C25.5174 34.0054 25.1733 34.0265 24.832 34.0659C26.0354 34.2048 27.2022 34.585 28.2603 35.1896C30.6683 36.5657 32.3062 38.9765 32.6986 41.7221L33.3623 46.3682C33.5923 47.9781 32.638 49.5222 31.0951 50.0365C30.8099 50.1316 30.5232 50.2204 30.2354 50.3042H32.5684C32.8571 50.2202 33.1449 50.1319 33.431 50.0365C34.974 49.5222 35.9282 47.9781 35.6982 46.3682V46.3682Z" fill="#E2D9FB"/>
<path d="M26 45.3535C22.7809 45.3535 20.0911 47.4729 19.428 50.3042C23.7199 51.5546 28.2801 51.5546 32.572 50.3042C31.9089 47.4729 29.2191 45.3535 26 45.3535Z" fill="#9EE2F8"/>
<path d="M32.572 50.3042C32.4959 49.9794 32.392 49.6645 32.2649 49.3605C31.9329 49.6555 31.5385 49.8887 31.0951 50.0364C29.0576 50.7156 26.9502 51.1067 24.8321 51.2121C24.8321 51.2121 24.832 51.2122 24.832 51.2123C27.432 51.3416 30.0484 51.0393 32.572 50.3042V50.3042Z" fill="#6AA9FF"/>
<path d="M31.0222 40.943L30.6016 39.2604C30.5079 38.8859 30.1714 38.6232 29.7854 38.6232H27.4495C27.8355 38.6232 28.172 38.8859 28.2656 39.2604L28.6863 40.943C28.819 41.4739 28.4175 41.9882 27.8701 41.9882H30.2061C30.7534 41.9882 31.155 41.4739 31.0222 40.943Z" fill="#6AA9FF"/>
<path d="M31.3403 39.0756C31.1616 38.3607 30.5221 37.8615 29.7852 37.8615H22.2145C21.4776 37.8615 20.8382 38.3607 20.6594 39.0756L20.2387 40.7582C20.1182 41.2404 20.2245 41.7417 20.5305 42.1335C20.8364 42.5252 21.2969 42.7499 21.794 42.7499H30.206C30.7031 42.7499 31.1636 42.5251 31.4694 42.1334C31.7753 41.7416 31.8817 41.2403 31.761 40.7581L31.3403 39.0756ZM30.2686 41.196C30.2447 41.2265 30.2154 41.2265 30.2059 41.2265H21.7939C21.7842 41.2265 21.7551 41.2265 21.7311 41.196C21.7072 41.1653 21.7144 41.1369 21.7166 41.1277L22.1373 39.4452C22.1461 39.4097 22.1779 39.3849 22.2144 39.3849H29.7851C29.8217 39.3849 29.8535 39.4097 29.8623 39.4452L30.283 41.1277C30.2853 41.137 30.2924 41.1654 30.2686 41.196V41.196Z" fill="black"/>
<path d="M50.397 38.0723H41.8013C41.3805 38.0723 41.0396 38.4133 41.0396 38.834C41.0396 39.2548 41.3805 39.5958 41.8013 39.5958H50.397C50.4409 39.5958 50.4766 39.6315 50.4766 39.6754V41.3165C50.4766 41.7886 50.1226 42.1821 49.6532 42.2322L45.051 42.7222C44.4083 42.3088 43.6448 42.0679 42.8255 42.0679C41.6925 42.0679 40.665 42.5269 39.9184 43.2687L36.083 43.6769L35.7884 41.6144C35.6886 40.9161 35.5161 40.2407 35.2782 39.5959H38.2331C38.6539 39.5959 38.9948 39.2549 38.9948 38.8341C38.9948 38.4134 38.6539 38.0724 38.2331 38.0724H34.5603C33.7123 36.6177 32.4888 35.3939 30.9741 34.5283C30.4214 34.2124 29.8402 33.9526 29.2399 33.7512L28.9814 30.1308H30.9122C33.241 32.3034 36.264 33.496 39.4603 33.496C46.3748 33.496 52 27.8708 52 20.9564C52 14.042 46.3748 8.41678 39.4604 8.41678C35.7571 8.41678 32.4242 10.0309 30.1267 12.5919V12.5437V9.12101C30.1267 7.80496 29.056 6.73429 27.74 6.73429H22.5553V2.44835C22.5553 1.10062 21.4588 0.00415039 20.111 0.00415039H10.0157C8.66785 0.00415039 7.57138 1.10062 7.57138 2.44835V6.73429H2.38672C1.07067 6.73429 0 7.80496 0 9.12101V26.0616C0 27.3777 1.07067 28.4484 2.38672 28.4484H5.80938H8.25358C8.67425 28.4484 9.0153 28.1074 9.0153 27.6866C9.0153 27.2659 8.67425 26.9249 8.25358 26.9249H6.57109V24.264C6.57109 22.9479 5.50042 21.8773 4.18438 21.8773H1.52344V13.3055H4.18438C5.50042 13.3055 6.57109 12.2348 6.57109 10.9188V8.25783H23.5557V10.9188C23.5557 12.2348 24.6264 13.3055 25.9424 13.3055H28.6034V14.6881C27.5338 16.5333 26.9209 18.6746 26.9209 20.9565C26.9209 21.3178 26.9362 21.6763 26.9661 22.0318C26.7004 21.9323 26.4139 21.8774 26.1159 21.8774H25.8841C24.6079 21.8774 23.537 22.8745 23.4461 24.1475L23.3679 25.2424H18.4285C17.5446 25.2424 16.8255 25.9615 16.8255 26.8454V26.9249H11.8083C11.3876 26.9249 11.0465 27.2659 11.0465 27.6866C11.0465 28.1074 11.3876 28.4484 11.8083 28.4484H16.8255V28.5279C16.8255 29.4118 17.5446 30.1308 18.4285 30.1308H23.0186L22.7601 33.7512C22.1598 33.9526 21.5786 34.2124 21.0259 34.5283C19.5111 35.3939 18.2876 36.6177 17.4396 38.0724H1.60296C0.719164 38.0723 0 38.7915 0 39.6755V41.3166C0 42.5697 0.939656 43.6146 2.18552 43.7472L5.61387 44.1122C5.25464 44.7241 5.04766 45.4355 5.04766 46.1948C5.04766 48.4703 6.89894 50.3217 9.17445 50.3217C11.45 50.3217 13.3012 48.4704 13.3012 46.1948C13.3012 45.7458 13.2282 45.3137 13.095 44.9087L15.7012 45.1862L15.5477 46.2606C15.2655 48.2361 16.4347 50.1281 18.3281 50.7593C20.8016 51.5838 23.4007 51.9961 25.9999 51.9961C28.599 51.9961 31.1982 51.5838 33.6719 50.7593C35.5652 50.1281 36.7343 48.2361 36.4522 46.2606L36.2987 45.1862L38.9049 44.9087C38.7717 45.3137 38.6987 45.7458 38.6987 46.1948C38.6987 48.4703 40.5499 50.3217 42.8256 50.3217C45.1011 50.3217 46.9523 48.4704 46.9523 46.1948C46.9523 45.4355 46.7454 44.7241 46.3861 44.1122L49.8146 43.7472C51.0604 43.6146 52 42.5697 52 41.3166V39.6755C52 38.7915 51.2809 38.0723 50.397 38.0723V38.0723ZM30.8742 14.0633C31.6833 14.4598 32.5895 14.7962 33.5644 15.0653C33.1392 16.6036 32.8781 18.3389 32.8217 20.1947H28.471C28.6297 17.8835 29.5042 15.7663 30.8742 14.0633V14.0633ZM50.4497 20.1947H46.0991C46.0427 18.339 45.7816 16.6036 45.3565 15.0653C46.3314 14.7961 47.2376 14.4598 48.0467 14.0633C49.4167 15.7664 50.2911 17.8835 50.4497 20.1947ZM48.0467 27.8494C47.2375 27.4529 46.3314 27.1166 45.3565 26.8475C45.7816 25.3092 46.0427 23.5738 46.0991 21.7181H50.4497C50.2911 24.0293 49.4166 26.1464 48.0467 27.8494ZM40.2221 27.6213C41.3109 27.6578 42.3736 27.7717 43.3805 27.9565C43.2449 28.2996 43.0999 28.6305 42.9432 28.9439C42.1763 30.4777 41.2143 31.4894 40.2221 31.8375V27.6213ZM40.2221 26.0962V21.7181H44.5736C44.518 23.4209 44.2765 25.046 43.8686 26.4991C42.7072 26.273 41.4778 26.136 40.2221 26.0962ZM40.2221 20.1947V15.8166C41.4778 15.7768 42.7071 15.6398 43.8686 15.4137C44.2765 16.8668 44.518 18.4919 44.5736 20.1947H40.2221ZM40.2221 14.2915V10.0752C41.2143 10.4232 42.1763 11.435 42.9432 12.9688C43.0999 13.2823 43.2449 13.6131 43.3805 13.9562C42.3737 14.141 41.3109 14.255 40.2221 14.2915V14.2915ZM38.6987 14.2915C37.6099 14.255 36.5471 14.141 35.5403 13.9563C35.6759 13.6132 35.8209 13.2823 35.9776 12.9689C36.7445 11.4351 37.7065 10.4233 38.6987 10.0753V14.2915ZM38.6987 15.8166V20.1947H34.3471C34.4028 18.4919 34.6443 16.8668 35.0521 15.4137C36.2136 15.6398 37.4429 15.7768 38.6987 15.8166V15.8166ZM38.6987 21.7181V26.0962C37.4696 26.1337 36.2759 26.2638 35.1314 26.4822C35.089 26.3003 35.016 26.1303 34.9175 25.9778C34.5917 24.6564 34.397 23.2006 34.3471 21.718H38.6987V21.7181ZM38.6987 27.6207V31.8404C37.4873 31.4231 36.3524 30.0311 35.5382 27.9556C36.5525 27.7687 37.6098 27.6563 38.6987 27.6207ZM44.886 28.2975C45.6257 28.4987 46.321 28.7408 46.9556 29.0217C45.8993 30.0039 44.651 30.7821 43.2733 31.2919C43.8998 30.4781 44.4453 29.4653 44.886 28.2975ZM44.886 13.6153C44.4453 12.4474 43.8998 11.4347 43.2733 10.6209C44.651 11.1307 45.8993 11.9089 46.9556 12.8912C46.321 13.1721 45.6257 13.4141 44.886 13.6153ZM34.0349 13.6153C33.2951 13.4141 32.5998 13.1721 31.9653 12.8911C33.0215 11.9088 34.2698 11.1307 35.6475 10.6209C35.0211 11.4347 34.4756 12.4474 34.0349 13.6153ZM32.8217 21.7181C32.8587 22.9334 32.9852 24.1123 33.1984 25.2423H29.3098C28.8342 24.1195 28.5532 22.9387 28.4708 21.7181H32.8217ZM28.7411 26.7658H33.5715C33.6154 26.7658 33.651 26.8015 33.651 26.8453V27.0381V27.0408V28.5279C33.651 28.5718 33.6153 28.6074 33.5715 28.6074H28.8726L28.7411 26.7658ZM33.5715 30.1308C33.9894 30.1308 34.3693 29.9687 34.6549 29.7059C34.9569 30.3 35.2882 30.8313 35.6441 31.2948C34.8415 30.999 34.075 30.6092 33.3586 30.1308H33.5715ZM5.04766 24.2639V26.9248H2.38672C1.9107 26.9248 1.52344 26.5375 1.52344 26.0615V23.4006H4.18438C4.6604 23.4006 5.04766 23.788 5.04766 24.2639ZM5.04766 10.9187C5.04766 11.3946 4.6604 11.7819 4.18438 11.7819H1.52344V9.12101C1.52344 8.64499 1.9107 8.25773 2.38672 8.25773H5.04766V10.9187ZM17.6668 6.73429H12.46V4.97218C12.46 4.92821 12.4957 4.89256 12.5396 4.89256H17.5873C17.6311 4.89256 17.6669 4.92831 17.6669 4.97218V6.73429H17.6668ZM19.1902 6.73429V4.97218C19.1902 4.08828 18.4711 3.36912 17.5872 3.36912H12.5395C11.6556 3.36912 10.9365 4.08828 10.9365 4.97218V6.73429H9.09492V2.44835C9.09492 1.94064 9.50798 1.52759 10.0158 1.52759H20.1111C20.6188 1.52759 21.032 1.94064 21.032 2.44835V6.73429H19.1902ZM25.0791 10.9187V8.25773H27.7401C28.2161 8.25773 28.6034 8.64499 28.6034 9.12101V11.7819H25.9424C25.4664 11.7819 25.0791 11.3946 25.0791 10.9187ZM25.8841 23.4006H26.1159C26.5967 23.4006 27.0002 23.7763 27.0345 24.2559L27.4655 30.29H24.5347L24.9657 24.2559C24.9999 23.7764 25.4033 23.4006 25.8841 23.4006V23.4006ZM18.4285 28.6074C18.3846 28.6074 18.3489 28.5717 18.3489 28.5279V26.8454C18.3489 26.8015 18.3846 26.7659 18.4285 26.7659H23.259L23.1275 28.6075H18.4285V28.6074ZM24.4258 31.8134H27.5743L27.6854 33.3681C27.1748 33.2859 26.657 33.2436 26.1371 33.2436H25.8631C25.3432 33.2436 24.8254 33.2859 24.3148 33.3681L24.4258 31.8134ZM9.17455 48.7981C7.73906 48.7981 6.57119 47.6303 6.57119 46.1947C6.57119 44.7592 7.73906 43.5913 9.17455 43.5913C10.61 43.5913 11.7779 44.7592 11.7779 46.1947C11.7779 47.6303 10.61 48.7981 9.17455 48.7981ZM12.0815 43.2687C11.335 42.5271 10.3075 42.0679 9.17455 42.0679C8.35524 42.0679 7.5917 42.3088 6.94891 42.7222L2.3468 42.2322C1.87738 42.1822 1.52344 41.7886 1.52344 41.3166V39.6755C1.52344 39.6315 1.55919 39.5959 1.60296 39.5959H16.7217C16.4838 40.2407 16.3112 40.9161 16.2115 41.6144L15.9169 43.6769L12.0815 43.2687ZM20.3886 49.775C21.2325 47.6169 23.4793 46.1152 26 46.1152C28.5207 46.1152 30.7675 47.617 31.6114 49.775C27.9433 50.7043 24.0565 50.7043 20.3886 49.775V49.775ZM33.1901 49.3139H33.19C33.1528 49.3263 33.1154 49.3377 33.0781 49.3499C32.6214 48.1081 31.7993 46.9956 30.7067 46.1616C29.3805 45.1492 27.709 44.5917 26 44.5917C24.291 44.5917 22.6194 45.1492 21.2933 46.1616C20.2007 46.9956 19.3786 48.1081 18.9219 49.3499C18.8846 49.3377 18.8472 49.3263 18.8099 49.3139C17.6155 48.9157 16.8779 47.7222 17.0559 46.4759L17.7196 41.8298C18.0812 39.2987 19.5618 37.1196 21.7817 35.851C23.0224 35.142 24.4337 34.7672 25.8629 34.7672H26.1369C27.5661 34.7672 28.9774 35.142 30.2183 35.851C32.4381 37.1196 33.9187 39.2988 34.2803 41.8298L34.944 46.4759C35.122 47.7221 34.3845 48.9156 33.1901 49.3139ZM42.8256 48.7981C41.39 48.7981 40.2221 47.6303 40.2221 46.1947C40.2221 44.7592 41.39 43.5913 42.8256 43.5913C44.261 43.5913 45.4289 44.7592 45.4289 46.1947C45.4289 47.6303 44.261 48.7981 42.8256 48.7981Z" fill="black"/>
</svg>
