<svg width="52" height="52" viewBox="0 0 52 52" fill="none" xmlns="http://www.w3.org/2000/svg">
<path d="M50.0369 24.8063L51.057 22.9293C50.8649 21.3471 50.5254 19.8106 50.0539 18.3329L49.5573 18.121L49.1896 17.3625L49.5143 16.8118C45.8437 7.44309 36.7246 0.808533 26.0546 0.808533C18.4918 0.808533 11.7084 4.14213 7.09134 9.4192L7.86946 11.433L4.18006 14.8654L3.18486 15.4298C1.69737 18.6436 0.865723 22.2231 0.865723 25.9973C0.865723 27.2473 0.958196 28.4756 1.13402 29.6767L3.03296 31.0767V33.0875L2.02691 33.5762C5.2436 43.784 14.7842 51.1861 26.0546 51.1861C32.5671 51.1861 38.5011 48.715 42.9719 44.6597L42.647 43.7781L44.575 41.4557L46.486 40.7316C48.0965 38.5019 49.3517 35.9985 50.1668 33.3034L49.4868 32.2662L50.0369 24.8063Z" fill="#A6E7F0"/>
<path d="M32.8718 18.4194L22.0181 16.7277C21.7896 16.6921 21.5579 16.7677 21.3945 16.9312L20.5584 17.7673C20.2244 18.1013 20.2943 18.6604 20.7002 18.9018L28.2091 23.3689L29.911 24.6042L35.6743 19.2634L32.8718 18.4194Z" fill="#EFEDEF"/>
<path d="M36.3637 21.9112L38.0554 32.765C38.091 32.9934 38.0155 33.2251 37.8519 33.3886L37.0158 34.2247C36.6818 34.5587 36.1227 34.4887 35.8813 34.0828L31.4142 26.5739L29.9109 24.6039L35.6742 19.2632L36.3637 21.9112Z" fill="#EFEDEF"/>
<path d="M21.7835 30.426L16.1368 29.3035C16.0803 29.2922 16.0218 29.31 15.9809 29.3508L14.7474 30.5843C14.6704 30.6613 14.6829 30.7893 14.7733 30.8501L18.8353 33.579L19.9242 34.4511C19.9242 34.4511 23.9979 30.9374 23.8696 30.9374C23.7413 30.9374 21.7835 30.426 21.7835 30.426Z" fill="#EFEDEF"/>
<path d="M21.1326 35.8762L23.8614 39.9382C23.9222 40.0285 24.0502 40.041 24.1272 39.964L25.3607 38.7306C25.4015 38.6897 25.4193 38.6312 25.408 38.5746L24.2855 32.928L23.5164 30.3481L19.9243 34.451L21.1326 35.8762Z" fill="#EFEDEF"/>
<path d="M18.8733 35.8383C18.2535 35.2185 18.2368 34.2191 18.8353 33.5789L34.4381 16.8928C35.3618 15.905 36.9201 15.8788 37.8764 16.8351C38.8327 17.7914 38.8066 19.3497 37.8187 20.2734L21.1326 35.8762C20.4925 36.4747 19.493 36.458 18.8733 35.8383Z" fill="#F9F7F8"/>
<path d="M11.5469 26.0018C11.5469 13.9242 20.0553 3.8278 31.3996 1.37685C29.677 1.00473 27.8817 0.812988 26.0477 0.812988C18.4855 0.812988 11.7025 4.14618 7.08542 9.42264C7.08988 9.44423 7.44994 11.2564 7.44994 11.2564L4.46261 14.8491L3.17792 15.4344C1.69044 18.6483 0.858887 22.2276 0.858887 26.0018C0.858887 27.2514 0.952171 28.4771 1.12789 29.6779L2.3198 29.9642L2.76442 33.1115L2.0218 33.5798C5.23849 43.7876 14.7772 51.1906 26.0477 51.1906C27.8817 51.1906 29.6697 50.9913 31.3923 50.6192C20.048 48.1681 11.5469 38.0794 11.5469 26.0018Z" fill="#6BD9E7"/>
<path d="M32.1383 12.4358H28.1953C27.3631 12.4358 26.6885 11.7611 26.6885 10.929C26.6885 10.0967 27.3632 9.42212 28.1953 9.42212H32.1383C32.9706 9.42212 33.6452 10.0968 33.6452 10.929C33.6452 11.7611 32.9705 12.4358 32.1383 12.4358Z" fill="#97DA7B"/>
<path d="M19.8911 9.42194C20.7661 9.42194 21.4759 10.1317 21.4759 11.0068C21.4759 11.4448 21.2984 11.8402 21.0115 12.1272C20.7245 12.4141 20.3281 12.5916 19.8911 12.5916H12.8572C12.3999 12.5916 12.0298 12.9627 12.0298 13.419V13.708C12.0298 14.6702 11.2501 15.4499 10.2878 15.4499L3.17896 15.4337C4.19292 13.2405 5.51411 11.2187 7.08676 9.42194H19.8911Z" fill="#97DA7B"/>
<path d="M8.68671 30.2497C9.03957 30.6025 9.25757 31.0903 9.25757 31.6287C9.25757 32.7055 8.38455 33.5785 7.30772 33.5785L2.02184 33.5797C1.62335 32.3194 1.32362 31.0153 1.12793 29.6779L7.30772 29.6788C7.84613 29.6788 8.33385 29.8968 8.68671 30.2497Z" fill="#80D261"/>
<path d="M46.265 40.7331L46.4851 40.7316C45.4529 42.1613 44.2739 43.4799 42.9699 44.6612H42.7618H29.0297C28.4883 44.6612 27.9965 44.4411 27.6416 44.0863C27.2857 43.7304 27.0657 43.2396 27.0657 42.6971C27.0657 41.6122 27.9458 40.7331 29.0297 40.7331H46.265Z" fill="#97DA7B"/>
<path d="M51.0548 22.929C51.1775 23.9349 51.2395 24.9609 51.2395 26.0002C51.2395 28.5402 50.864 30.9929 50.1644 33.3038L43.1238 33.3028C42.2132 33.3028 41.4761 32.5656 41.4761 31.6551V31.2221C41.4761 30.3126 42.2132 29.5744 43.1238 29.5744H44.8445C45.3068 29.5744 45.7256 29.3868 46.0288 29.0837C46.3319 28.7815 46.5195 28.3617 46.5195 27.8994C46.5195 26.9746 45.7692 26.2243 44.8445 26.2243H43.6318C43.1765 26.2243 42.7648 26.0397 42.4677 25.7416C42.1696 25.4435 41.9851 25.0319 41.9851 24.5766C41.9851 23.6671 42.7222 22.9299 43.6318 22.9299L51.0548 22.929Z" fill="#97DA7B"/>
<path d="M12.0298 13.708V13.419C12.0298 12.9627 12.3999 12.5916 12.8572 12.5916H15.4131C16.1185 11.4724 16.9099 10.4131 17.7773 9.42195L7.0871 9.42084C5.51445 11.2176 4.19194 13.2412 3.17798 15.4344L10.2878 15.45C11.25 15.45 12.0298 14.6702 12.0298 13.708Z" fill="#80D261"/>
<path d="M36.1325 15.3746C35.2705 15.389 34.4715 15.7438 33.8827 16.3734L32.7125 17.6249L22.1356 15.9764C21.6687 15.9033 21.191 16.0595 20.857 16.3934L20.021 17.2295C19.6946 17.5558 19.5402 18.0056 19.5974 18.4635C19.6546 18.9215 19.915 19.3194 20.3116 19.5555L27.12 23.6058L25.4007 25.4444C25.1139 25.7512 25.13 26.2324 25.4368 26.5194C25.7437 26.8063 26.2249 26.7901 26.5117 26.4834L34.9937 17.4124C35.2984 17.0865 35.7118 16.9029 36.1579 16.8954C36.6071 16.888 37.0233 17.0576 37.3387 17.373C37.6542 17.6885 37.8238 18.1079 37.8164 18.554C37.8089 19 37.6253 19.4135 37.2995 19.7182L20.6133 35.3207C20.2706 35.6409 19.7426 35.6321 19.4112 35.3006C19.0795 34.969 19.0708 34.4409 19.3911 34.0984L24.297 28.8518C24.5839 28.545 24.5678 28.0638 24.2609 27.7769C23.9542 27.49 23.473 27.5062 23.186 27.8129L21.5172 29.5976L16.2857 28.5576C15.98 28.4967 15.6651 28.5919 15.4433 28.813L14.2099 30.0466C14.0119 30.2446 13.9139 30.518 13.9409 30.7967C13.968 31.0756 14.1168 31.3249 14.3494 31.4813L17.8065 33.8038C17.4598 34.6647 17.6376 35.6779 18.3357 36.376C18.8032 36.8435 19.4123 37.0784 20.0224 37.0784C20.3231 37.0784 20.6239 37.0201 20.9082 36.9057L23.2304 40.3625C23.3865 40.5948 23.6358 40.7436 23.9145 40.7707C23.9451 40.7737 23.9756 40.7751 24.0059 40.7751C24.2522 40.7751 24.4884 40.6782 24.665 40.5018L25.8985 39.2682C26.119 39.0477 26.2145 38.7332 26.154 38.4262L25.1139 33.1944L31.1246 27.574L35.2279 34.4715C35.4637 34.8682 35.8616 35.1285 36.3196 35.1858C36.3824 35.1937 36.4449 35.1975 36.5073 35.1975C36.8986 35.1975 37.2721 35.044 37.5538 34.7625L38.3899 33.9263C38.7239 33.5923 38.8798 33.1144 38.8069 32.6478L37.1395 21.9496L38.3382 20.8288C38.9678 20.24 39.3226 19.4411 39.3371 18.5791C39.3516 17.7172 39.0238 16.9068 38.4142 16.2972C37.8047 15.6879 36.993 15.3584 36.1325 15.3746ZM21.1292 18.2721L21.9194 17.4819L31.4563 18.9684L28.1834 22.4686L21.1292 18.2721ZM16.2968 30.1107L20.2944 30.9054L18.7223 32.5868L15.7904 30.6172L16.2968 30.1107ZM24.601 38.4148L24.0946 38.9213L22.1249 35.9894L23.8063 34.4173L24.601 38.4148ZM37.3014 32.864L36.5113 33.6541L32.2617 26.5108L35.7962 23.2059L37.3014 32.864Z" fill="black"/>
<path d="M46.9943 10.6769C46.7157 10.2969 46.4276 9.9263 46.1314 9.56401L46.5113 9.18408C47.516 8.17945 48.0693 6.84355 48.0693 5.42279C48.0693 4.00203 47.516 2.66613 46.5113 1.6615C44.4374 -0.412457 41.0628 -0.412558 38.9886 1.6615L37.7968 2.85331C36.6622 2.2786 35.4805 1.78419 34.2574 1.37668C33.8592 1.24395 33.4283 1.45932 33.2957 1.8578C33.1628 2.25629 33.3783 2.68692 33.7768 2.81965C38.6004 4.42657 42.7468 7.45447 45.7677 11.576C46.9675 13.2131 47.9461 14.969 48.6952 16.8114H45.1159C44.6958 16.8114 44.3554 17.1519 44.3554 17.5719C44.3554 17.9919 44.6958 18.3323 45.1159 18.3323H49.2553C49.6673 19.5803 49.9774 20.8623 50.1823 22.1694H43.6326C42.3049 22.1694 41.2247 23.2496 41.2247 24.5772C41.2247 25.9049 42.3049 26.9851 43.6326 26.9851H44.8446C45.3489 26.9851 45.7593 27.3953 45.7593 27.8997C45.7593 28.404 45.3489 28.8143 44.8446 28.8143H43.1238C41.7961 28.8143 40.7159 29.8944 40.7159 31.2221V31.6556C40.7159 32.9833 41.7961 34.0635 43.1238 34.0635H49.122C48.3923 36.1562 47.3773 38.1423 46.0953 39.9731H35.6518C35.2317 39.9731 34.8913 40.3136 34.8913 40.7336C34.8913 41.1536 35.2317 41.4941 35.6518 41.4941H44.9397C44.4333 42.109 43.8947 42.7031 43.324 43.2738C43.1099 43.4879 42.8914 43.6961 42.6708 43.9012H29.03C28.3664 43.9012 27.8265 43.3613 27.8265 42.6976C27.8265 42.034 28.3664 41.4941 29.03 41.4941H32.4109C32.831 41.4941 33.1713 41.1536 33.1713 40.7336C33.1713 40.3136 32.831 39.9731 32.4109 39.9731H29.03C27.5278 39.9731 26.3056 41.1954 26.3056 42.6976C26.3056 44.1999 27.5278 45.4222 29.03 45.4222H40.8714C36.6346 48.6691 31.4781 50.4287 26.0505 50.4287C19.5253 50.4287 13.3909 47.8877 8.77705 43.2738C6.20615 40.7029 4.27973 37.6594 3.07707 34.3398H7.30711C8.80169 34.3398 10.0175 33.1238 10.0175 31.6292C10.0175 30.1347 8.80169 28.9188 7.30711 28.9188H1.79471C1.68095 27.9574 1.62224 26.9834 1.62224 26.0003C1.62224 22.5748 2.32359 19.2573 3.65655 16.2104H10.2879C11.6673 16.2104 12.7897 15.0881 12.7897 13.7086V13.4197C12.7897 13.3827 12.8198 13.3527 12.8567 13.3527H19.8907C21.184 13.3527 22.2361 12.3006 22.2361 11.0073C22.2361 9.71398 21.184 8.66189 19.8907 8.66189H8.84357C13.4499 4.08953 19.5565 1.57187 26.0506 1.57187C27.6201 1.57187 29.1966 1.72355 30.7361 2.02257C31.1488 2.10257 31.5476 1.83337 31.6277 1.42109C31.7078 1.00881 31.4385 0.609617 31.0262 0.529615C29.3913 0.212043 27.7172 0.0510254 26.0506 0.0510254C19.1193 0.0510254 12.6028 2.75029 7.70165 7.65148C2.80046 12.5527 0.101295 19.0687 0.101295 26C0.101295 30.1515 1.07054 34.1537 2.90034 37.7497L1.55795 39.0921C0.553319 40.0967 0 41.4324 0 42.8534C0 44.2742 0.553319 45.61 1.55795 46.6147C2.56258 47.6194 3.89838 48.1726 5.31934 48.1726C6.74021 48.1726 8.076 47.6193 9.08063 46.6147L9.61276 46.0825C14.2382 49.8828 19.9856 51.9494 26.0507 51.9494C32.982 51.9494 39.4985 49.2502 44.3997 44.349C49.3009 39.4478 52.0001 32.9314 52.0001 26C52 20.4436 50.2691 15.145 46.9943 10.6769ZM39.1886 3.61236L40.064 2.73691C41.5451 1.25592 43.9548 1.25602 45.4358 2.73691C46.1533 3.45439 46.5484 4.40822 46.5484 5.42279C46.5484 6.43736 46.1534 7.39119 45.4358 8.10867L45.1325 8.41195C43.3897 6.51645 41.3909 4.90385 39.1886 3.61236ZM20.7151 11.007C20.7151 11.4615 20.3453 11.8314 19.8907 11.8314H12.8567C11.9811 11.8314 11.2688 12.5437 11.2688 13.4194V13.7083C11.2688 14.2491 10.8287 14.6892 10.2879 14.6892H4.3869C5.22393 13.0906 6.24306 11.5798 7.43406 10.1825H19.8907C20.3452 10.1825 20.7151 10.5524 20.7151 11.007ZM7.30711 30.4395C7.96305 30.4395 8.49659 30.9731 8.49659 31.629C8.49659 32.285 7.96294 32.8185 7.30711 32.8185H2.58327C2.35766 32.0377 2.17079 31.2439 2.02387 30.4395H7.30711ZM8.00502 45.5392C7.28764 46.2565 6.33391 46.6517 5.31934 46.6517C4.30467 46.6517 3.35094 46.2566 2.63356 45.5392C1.91598 44.8217 1.52094 43.8679 1.52094 42.8534C1.52094 41.8388 1.91598 40.885 2.63356 40.1675L3.66263 39.1384C4.76897 41.0164 6.11987 42.7672 7.70165 44.349C7.95149 44.5988 8.2065 44.8414 8.46455 45.0796L8.00502 45.5392ZM49.5979 32.5423H43.1236C42.6345 32.5423 42.2367 32.1444 42.2367 31.6554V31.2219C42.2367 30.7329 42.6345 30.335 43.1236 30.335H44.8444C46.1874 30.335 47.28 29.2425 47.28 27.8995C47.28 26.5565 46.1875 25.4639 44.8444 25.4639H43.6324C43.1433 25.4639 42.7455 25.0661 42.7455 24.577C42.7455 24.088 43.1433 23.6901 43.6324 23.6901H50.3713C50.4424 24.4535 50.4792 25.2239 50.4792 25.9998C50.4791 28.2422 50.1789 30.4382 49.5979 32.5423Z" fill="black"/>
<path d="M12.0949 43.2854C12.2895 43.2854 12.4842 43.2111 12.6327 43.0626L13.7713 41.924C14.0683 41.627 14.0683 41.1455 13.7713 40.8486C13.4742 40.5516 12.9928 40.5516 12.6958 40.8486L11.5572 41.9872C11.2602 42.2842 11.2602 42.7657 11.5572 43.0626C11.7057 43.2111 11.9003 43.2854 12.0949 43.2854Z" fill="black"/>
<path d="M16.1273 37.4172L14.7551 38.7894C14.458 39.0864 14.458 39.5678 14.755 39.8648C14.9035 40.0133 15.0981 40.0876 15.2928 40.0876C15.4873 40.0876 15.682 40.0133 15.8305 39.8648L17.2027 38.4926C17.4997 38.1956 17.4998 37.7142 17.2028 37.4172C16.9057 37.1202 16.4241 37.1202 16.1273 37.4172Z" fill="black"/>
<path d="M40.2658 15.4295L40.9989 14.6964C41.2959 14.3994 41.2959 13.9179 40.9989 13.621C40.7018 13.324 40.2204 13.324 39.9234 13.621L39.1903 14.3541C38.8933 14.6511 38.8933 15.1326 39.1903 15.4295C39.3388 15.5779 39.5335 15.6523 39.7281 15.6523C39.9227 15.6523 40.1172 15.578 40.2658 15.4295Z" fill="black"/>
<path d="M42.8782 12.817L43.5125 12.1828C43.8096 11.8858 43.8096 11.4044 43.5126 11.1074C43.2157 10.8104 42.7341 10.8103 42.4372 11.1073L41.8029 11.7415C41.5058 12.0385 41.5058 12.5199 41.8028 12.8169C41.9514 12.9655 42.1459 13.0397 42.3406 13.0397C42.5351 13.0397 42.7298 12.9655 42.8782 12.817Z" fill="black"/>
<path d="M32.1381 8.66156H28.1951C26.9448 8.66156 25.9277 9.67866 25.9277 10.9289C25.9277 12.1791 26.9448 13.1962 28.1951 13.1962H32.1381C33.3884 13.1962 34.4055 12.1791 34.4055 10.9289C34.4055 9.67866 33.3884 8.66156 32.1381 8.66156ZM32.1381 11.6754H28.1951C27.7835 11.6754 27.4487 11.3405 27.4487 10.929C27.4487 10.5174 27.7836 10.1826 28.1951 10.1826H32.1381C32.5497 10.1826 32.8845 10.5174 32.8845 10.929C32.8845 11.3405 32.5497 11.6754 32.1381 11.6754Z" fill="black"/>
<path d="M16.0531 24.6041C16.0531 24.1841 15.7127 23.8436 15.2927 23.8436H10.4497C10.0296 23.8436 9.68921 24.1841 9.68921 24.6041C9.68921 25.0241 10.0296 25.3646 10.4497 25.3646H15.2927C15.7127 25.3646 16.0531 25.0241 16.0531 24.6041Z" fill="black"/>
<path d="M30.1667 34.4511C29.7466 34.4511 29.4062 34.7916 29.4062 35.2116C29.4062 35.6316 29.7466 35.9721 30.1667 35.9721H31.4145C31.8346 35.9721 32.175 35.6316 32.175 35.2116C32.175 34.7916 31.8346 34.4511 31.4145 34.4511H30.1667Z" fill="black"/>
</svg>
