<svg width="52" height="52" viewBox="0 0 52 52" fill="none" xmlns="http://www.w3.org/2000/svg">
<g clip-path="url(#clip0_637_9104)">
<path d="M51.2362 27.361V45.1588C51.2362 46.7035 49.9839 47.9558 48.4391 47.9558H24.0723V24.5649H48.4391C49.9839 24.5649 51.2362 25.8172 51.2362 27.361Z" fill="#FF7680"/>
<path d="M51.2362 27.361V45.1588C51.2362 46.7035 49.9839 47.9558 48.4391 47.9558H24.0723V45.7214H45.7985C47.3433 45.7214 48.5955 44.4692 48.5955 42.9244V27.361C48.5955 25.8172 47.3433 24.5649 45.7985 24.5649H48.4391C49.9839 24.5649 51.2362 25.8172 51.2362 27.361Z" fill="#F44D90"/>
<path d="M27.1191 40.1274H51.2362V43.6577H27.1191V40.1274Z" fill="#46637F"/>
<path d="M51.2362 40.1274V43.6577H48.4971C48.5621 43.4241 48.5956 43.1783 48.5956 42.9244V40.1274H51.2362Z" fill="#234063"/>
<path d="M3.8103 49.7149C3.8103 50.5562 4.4924 51.2383 5.33374 51.2383C6.17508 51.2383 6.85718 50.5562 6.85718 49.7149V47.9559H3.8103V49.7149Z" fill="#46637F"/>
<path d="M25.1384 47.9559V49.7149C25.1384 50.5562 25.8205 51.2383 26.6619 51.2383C27.5032 51.2383 28.1853 50.5562 28.1853 49.7149V47.9559H25.1384Z" fill="#46637F"/>
<path d="M48.4395 47.9559H45.3926V49.7149C45.3926 50.5562 46.0747 51.2383 46.916 51.2383C47.7574 51.2383 48.4395 50.5562 48.4395 49.7149V47.9559Z" fill="#46637F"/>
<path d="M31.2324 12.1591V45.1588C31.2324 46.7035 29.9802 47.9558 28.4354 47.9558H3.5607C2.01594 47.9558 0.763672 46.7035 0.763672 45.1588V12.1591C0.763672 10.6143 2.01594 9.36206 3.5607 9.36206H28.4354C29.9802 9.36206 31.2324 10.6143 31.2324 12.1591Z" fill="#FFFF4D"/>
<path d="M31.2324 12.1591V45.1588C31.2324 46.7035 29.9802 47.9558 28.4354 47.9558H3.5607C2.01594 47.9558 0.763672 46.7035 0.763672 45.1588V44.9089H25.3885C26.9333 44.9089 28.1855 43.6567 28.1855 42.1119V12.1591C28.1855 10.6143 26.9333 9.36206 25.3885 9.36206H28.4354C29.9802 9.36206 31.2324 10.6143 31.2324 12.1591Z" fill="#FFE150"/>
<path d="M3.81055 27.948H28.1855V44.9089H3.81055V27.948Z" fill="#F7904B"/>
<path d="M28.1855 27.948V44.9089H3.81055V42.6746H23.4578C24.8066 42.6746 25.8994 41.5817 25.8994 40.233V27.948H28.1855Z" fill="#F25D40"/>
<path d="M10.9197 16.972H21.0759V20.0189H10.9197V16.972Z" fill="#46637F"/>
<path d="M43.4514 29.0228V33.6947H39.7952V29.0228L41.6233 27.1605L43.4514 29.0228Z" fill="#D8E5EF"/>
<path d="M28.4351 8.60041H22.4074V1.52344H23.6769C24.0976 1.52344 24.4387 1.18239 24.4387 0.761719C24.4387 0.341047 24.0976 0 23.6769 0H8.31856C7.89789 0 7.55684 0.341047 7.55684 0.761719C7.55684 1.18239 7.89789 1.52344 8.31856 1.52344H9.58809V8.60041H3.56036C1.59807 8.60041 0.00170898 10.1968 0.00170898 12.1591V45.1589C0.00170898 46.9474 1.32791 48.4319 3.04858 48.6808V49.7148C3.04858 50.9749 4.07365 52 5.33374 52C6.59383 52 7.6189 50.9749 7.6189 49.7148V48.7176H24.3767V49.7148C24.3767 50.9749 25.4018 52 26.6619 52C27.922 52 28.947 50.9749 28.947 49.7148V48.6808C30.6677 48.4319 31.9939 46.9474 31.9939 45.1589V17.9577C31.9939 17.537 31.653 17.196 31.2322 17.196C30.8114 17.196 30.4705 17.537 30.4705 17.9577V45.1589C30.4705 46.2811 29.5575 47.1942 28.4352 47.1942H3.56036C2.43819 47.1942 1.52515 46.2811 1.52515 45.1589V12.1591C1.52515 11.0368 2.43819 10.1239 3.56036 10.1239H28.4351C29.5574 10.1239 30.4704 11.0368 30.4704 12.1591V14.3919C30.4704 14.8126 30.8113 15.1536 31.2321 15.1536C31.6528 15.1536 31.9938 14.8126 31.9938 14.3919V12.1591C31.9938 10.1968 30.3974 8.60041 28.4351 8.60041ZM27.4235 48.7176V49.7148C27.4235 50.1349 27.0818 50.4766 26.6618 50.4766C26.2418 50.4766 25.9 50.1349 25.9 49.7148V48.7176H27.4235ZM6.09546 48.7176V49.7148C6.09546 50.1349 5.7538 50.4766 5.33374 50.4766C4.91368 50.4766 4.57202 50.1349 4.57202 49.7148V48.7176H6.09546ZM11.1115 1.52344H20.884V8.60041H11.1115V1.52344Z" fill="black"/>
<path d="M10.338 45.6707H28.1853C28.6061 45.6707 28.947 45.3297 28.947 44.909V27.9481C28.947 27.5274 28.6061 27.1863 28.1853 27.1863H3.8103C3.38963 27.1863 3.04858 27.5274 3.04858 27.9481V44.909C3.04858 45.3297 3.38963 45.6707 3.8103 45.6707H6.85718C7.27785 45.6707 7.6189 45.3297 7.6189 44.909C7.6189 44.4883 7.27785 44.1473 6.85718 44.1473H4.57202V28.7098H27.4236V44.1473H10.338C9.91736 44.1473 9.57631 44.4883 9.57631 44.909C9.57631 45.3297 9.91736 45.6707 10.338 45.6707Z" fill="black"/>
<path d="M22.7009 34.9554C23.1216 34.9554 23.4626 34.6143 23.4626 34.1936V31.7195H25.1384C25.5591 31.7195 25.9001 31.3784 25.9001 30.9578C25.9001 30.5371 25.5591 30.196 25.1384 30.196H6.85718C6.43651 30.196 6.09546 30.5371 6.09546 30.9578C6.09546 31.3784 6.43651 31.7195 6.85718 31.7195H21.9392V34.1936C21.9392 34.6143 22.2803 34.9554 22.7009 34.9554Z" fill="black"/>
<path d="M21.0759 20.7806C21.4966 20.7806 21.8376 20.4395 21.8376 20.0189V16.972C21.8376 16.5513 21.4966 16.2103 21.0759 16.2103H10.9197C10.499 16.2103 10.158 16.5513 10.158 16.972V20.0189C10.158 20.4395 10.499 20.7806 10.9197 20.7806H21.0759ZM11.6814 17.7337H20.3142V19.2571H11.6814V17.7337Z" fill="black"/>
<path d="M48.4392 23.8028H42.3849V20.9049C42.3849 19.5689 41.298 18.4819 39.9619 18.4819H34.2286C33.8078 18.4819 33.4669 18.823 33.4669 19.2437C33.4669 19.6643 33.8078 20.0054 34.2286 20.0054H39.9619C40.458 20.0054 40.8615 20.409 40.8615 20.9049V23.8028H34.2285C33.8077 23.8028 33.4668 24.1438 33.4668 24.5645C33.4668 24.9852 33.8077 25.3262 34.2285 25.3262H40.8615V26.8491L39.2514 28.4892C39.1116 28.6316 39.0333 28.8232 39.0333 29.0228V33.6947C39.0333 34.1153 39.3743 34.4564 39.7951 34.4564H43.4513C43.8721 34.4564 44.213 34.1153 44.213 33.6947V29.0228C44.213 28.8232 44.1347 28.6316 43.995 28.4892L42.3849 26.8491V25.3262H48.4392C49.5615 25.3262 50.4746 26.2392 50.4746 27.3614V39.3655H47.8831C47.4623 39.3655 47.1214 39.7066 47.1214 40.1272C47.1214 40.5479 47.4623 40.889 47.8831 40.889H50.4746V42.8962H34.2285C33.8077 42.8962 33.4668 43.2373 33.4668 43.658C33.4668 44.0786 33.8077 44.4197 34.2285 44.4197H50.4746V45.1589C50.4746 46.2812 49.5615 47.1943 48.4392 47.1943H34.2285C33.8077 47.1943 33.4668 47.5353 33.4668 47.956C33.4668 48.3766 33.8077 48.7177 34.2285 48.7177H44.6306V49.7149C44.6306 50.975 45.6558 52.0001 46.9158 52.0001C48.1758 52.0001 49.201 50.975 49.201 49.7149V48.6356C50.7985 48.286 51.998 46.8599 51.998 45.1589V27.3614C51.998 25.3992 50.4015 23.8028 48.4392 23.8028ZM42.6896 32.933H40.5568V29.3342L41.6232 28.2479L42.6896 29.3342V32.933ZM47.6775 49.7148C47.6775 50.1349 47.3359 50.4766 46.9158 50.4766C46.4957 50.4766 46.1541 50.1349 46.1541 49.7148V48.7176H47.6775V49.7148Z" fill="black"/>
<path d="M34.2285 40.889H44.3631C44.7839 40.889 45.1249 40.5479 45.1249 40.1273C45.1249 39.7066 44.7839 39.3655 44.3631 39.3655H34.2285C33.8077 39.3655 33.4668 39.7066 33.4668 40.1273C33.4668 40.5479 33.8078 40.889 34.2285 40.889Z" fill="black"/>
</g>
<defs>
<clipPath id="clip0_637_9104">
<rect width="52" height="52" fill="white"/>
</clipPath>
</defs>
</svg>
