<svg width="52" height="48" viewBox="0 0 52 48" fill="none" xmlns="http://www.w3.org/2000/svg">
<path d="M0.761963 45.5465V12.5452C0.761963 11.9843 1.21666 11.5296 1.77759 11.5296H50.2225C50.7834 11.5296 51.2381 11.9843 51.2381 12.5452V45.5464C51.2381 46.1074 50.7834 46.5621 50.2225 46.5621H1.77759C1.21666 46.5622 0.761963 46.1075 0.761963 45.5465Z" fill="#F6E7C6"/>
<path d="M50.2222 11.5297H48.4094V42.7176C48.4094 43.2787 47.9546 43.7336 47.3935 43.7336H0.761963V45.5464C0.761963 46.1074 1.21676 46.5623 1.77789 46.5623H50.2223C50.7833 46.5623 51.2382 46.1075 51.2382 45.5464V12.5457C51.2381 11.9845 50.7833 11.5297 50.2222 11.5297Z" fill="#F1CB86"/>
<path d="M40.4345 4.37544C40.4345 2.75298 39.1192 1.43774 37.4968 1.43774C35.8743 1.43774 34.5591 2.75298 34.5591 4.37544V9.17853C34.5591 10.9182 34.7005 12.6549 34.9819 14.3717L36.059 20.9428H38.9832L40.0382 14.2914C40.302 12.6279 40.4346 10.9462 40.4346 9.26192V4.37544H40.4345Z" fill="#756E78"/>
<path d="M37.4966 1.43774C37.1347 1.43774 36.7882 1.50356 36.468 1.6233C37.5831 2.04021 38.3771 3.11495 38.3771 4.37544V9.26192C38.3771 10.9462 38.2445 12.6279 37.9807 14.2914L36.9258 20.9428H38.9829L40.0378 14.2914C40.3017 12.6279 40.4342 10.9462 40.4342 9.26192V4.37544C40.4343 2.75298 39.1191 1.43774 37.4966 1.43774Z" fill="#665E66"/>
<path d="M44.4644 22.8929L44.8708 22.582V20.2215C44.8708 19.941 44.6434 19.7136 44.3628 19.7136H30.7333C30.4527 19.7136 30.2253 19.941 30.2253 20.2215V22.582L30.6317 22.8929H44.4644Z" fill="#756E78"/>
<path d="M44.3629 19.7135H43.5073V22.8833C43.5073 22.8865 43.5071 22.8897 43.5071 22.8929H44.4646L44.871 22.5819V20.2215C44.8709 19.9409 44.6435 19.7135 44.3629 19.7135Z" fill="#665E66"/>
<path d="M30.2253 22.5818V23.2678C30.2253 25.1755 31.7717 26.7218 33.6794 26.7218H41.4167C43.3244 26.7218 44.8708 25.1755 44.8708 23.2678V22.5818H30.2253Z" fill="#EAB14D"/>
<path d="M43.5072 22.5818V22.8832C43.5072 24.25 42.3991 25.3582 41.0322 25.3582H32.3157C31.7125 25.3582 31.1456 25.2032 30.6521 24.9314C31.2398 25.9985 32.375 26.7218 33.6794 26.7218H41.4167C43.3244 26.7218 44.8707 25.1755 44.8707 23.2678V22.5818H43.5072Z" fill="#E49542"/>
<path d="M50.2221 10.7677H41.1601C41.1833 10.2654 41.1963 9.76305 41.1963 9.26194V4.37546C41.1963 2.33558 39.5367 0.675842 37.4967 0.675842C35.4567 0.675842 33.7971 2.33547 33.7971 4.37546V9.17845C33.7971 9.70749 33.8116 10.2376 33.8374 10.7677H8.42816C8.00739 10.7677 7.66624 11.1087 7.66624 11.5296C7.66624 11.9505 8.00739 12.2915 8.42816 12.2915H25.2381V39.2012C25.2381 39.6221 25.5792 39.9632 26 39.9632C26.4208 39.9632 26.7619 39.6221 26.7619 39.2012V12.2915H33.9467C34.0168 13.0299 34.1104 13.7656 34.2299 14.4948L34.9604 18.9515H30.7333C30.0331 18.9515 29.4635 19.5212 29.4635 20.2213V23.2677C29.4635 25.5924 31.3548 27.4837 33.6794 27.4837H41.4168C43.7414 27.4837 45.6327 25.5924 45.6327 23.2677V20.2213C45.6327 19.5212 45.0631 18.9515 44.3629 18.9515H40.0703L40.7904 14.4107C40.9018 13.7092 40.989 13.0016 41.0547 12.2915H50.2223C50.3623 12.2915 50.4763 12.4054 50.4763 12.5456V45.5463C50.4763 45.6863 50.3623 45.8003 50.2223 45.8003H26.7619V42.9792C26.7619 42.5583 26.4208 42.2172 26 42.2172C25.5792 42.2172 25.2381 42.5583 25.2381 42.9792V45.8003H1.77785C1.6378 45.8003 1.52384 45.6864 1.52384 45.5463V12.5456C1.52384 12.4055 1.6378 12.2915 1.77785 12.2915H4.67888C5.09966 12.2915 5.4408 11.9505 5.4408 11.5296C5.4408 11.1087 5.09966 10.7677 4.67888 10.7677H1.77785C0.79757 10.7677 0 11.5653 0 12.5456V45.5463C0 46.5265 0.79757 47.3241 1.77785 47.3241H50.2223C51.2025 47.3241 52.0001 46.5265 52.0001 45.5463V12.5456C52 11.5653 51.2024 10.7677 50.2221 10.7677ZM41.4168 25.9599H33.6794C32.2205 25.9599 31.0289 24.7932 30.9883 23.3438H44.1079C44.0675 24.7932 42.8757 25.9599 41.4168 25.9599ZM44.1089 21.8199H30.9873V20.4754H44.1089V21.8199ZM36.5045 18.9515L35.7336 14.2485C35.4597 12.5776 35.3209 10.8719 35.3209 9.17845V4.37546C35.3209 3.1757 36.2969 2.19969 37.4967 2.19969C38.6964 2.19969 39.6724 3.1757 39.6724 4.37546V9.26194C39.6724 10.9011 39.5422 12.5531 39.2855 14.1721L38.5274 18.9516H36.5045V18.9515Z" fill="black"/>
<path d="M12.6681 15.7489C12.2757 15.3565 11.7541 15.1404 11.199 15.1404C10.6441 15.1404 10.1224 15.3565 9.73004 15.7488L4.54913 20.9297C4.1567 21.3222 3.94067 21.8439 3.94067 22.3989C3.94067 22.9538 4.1568 23.4755 4.54913 23.868L6.81774 26.1366C7.21017 26.529 7.7318 26.7451 8.28674 26.7451C8.84167 26.7451 9.3634 26.529 9.75574 26.1367L14.9366 20.9557C15.3291 20.5633 15.5452 20.0416 15.5452 19.4866C15.5452 18.9317 15.3291 18.41 14.9366 18.0175L12.6681 15.7489ZM13.8593 19.8782L8.67826 25.0592C8.57365 25.1638 8.43471 25.2213 8.28674 25.2213C8.13886 25.2213 7.99992 25.1637 7.89521 25.0591L5.62661 22.7904C5.522 22.6858 5.46452 22.5468 5.46452 22.3989C5.46452 22.2509 5.5221 22.1119 5.62671 22.0073L10.8076 16.8264C10.9122 16.7217 11.0513 16.6642 11.1991 16.6642C11.347 16.6642 11.4861 16.7218 11.5907 16.8264L13.8594 19.0951C13.964 19.1997 14.0216 19.3387 14.0216 19.4866C14.0215 19.6346 13.9639 19.7736 13.8593 19.8782Z" fill="black"/>
<path d="M41.2116 36.8171C42.3571 36.8171 43.2892 35.8851 43.2892 34.7395V30.9705C43.2892 29.825 42.3572 28.8929 41.2116 28.8929H33.8847C32.7392 28.8929 31.8071 29.8249 31.8071 30.9705V34.7395C31.8071 35.885 32.7391 36.8171 33.8847 36.8171H41.2116ZM33.331 34.7395V30.9705C33.331 30.6652 33.5793 30.4168 33.8847 30.4168H41.2116C41.5169 30.4168 41.7653 30.6652 41.7653 30.9705V34.7395C41.7653 35.0448 41.517 35.2932 41.2116 35.2932H33.8847C33.5794 35.2932 33.331 35.0448 33.331 34.7395Z" fill="black"/>
<path d="M11.4446 33.2382L6.39528 34.5911C5.76935 34.7588 5.29546 35.2326 5.12768 35.8586C4.9599 36.4846 5.13336 37.132 5.59161 37.5902L9.28798 41.2867C9.63116 41.6299 10.0805 41.8133 10.5474 41.8133C10.7039 41.8133 10.8623 41.7927 11.0195 41.7507C11.6455 41.5829 12.1193 41.1091 12.2871 40.4831L13.6401 35.4337C13.8078 34.8077 13.6343 34.1604 13.1761 33.7021C12.7178 33.2438 12.0705 33.0702 11.4446 33.2382ZM12.1682 35.0392L10.8152 40.0885C10.7802 40.219 10.6811 40.2636 10.6251 40.2786C10.5691 40.2935 10.4609 40.3045 10.3655 40.209L6.66909 36.5126C6.57362 36.4171 6.58459 36.309 6.59952 36.253C6.61455 36.197 6.65914 36.0979 6.78965 36.0629L11.8389 34.7099C11.9694 34.6749 12.0576 34.7385 12.0985 34.7795C12.1396 34.8206 12.2031 34.9089 12.1682 35.0392Z" fill="black"/>
<path d="M17.7764 29.8175C17.5275 29.8175 17.2785 29.8029 17.0363 29.7742C16.6178 29.723 16.2395 30.0231 16.1899 30.441C16.1403 30.8588 16.4388 31.2379 16.8568 31.2873C17.1582 31.3232 17.4676 31.3412 17.7764 31.3412C20.5706 31.3412 22.7594 29.9021 22.7594 28.0649C22.7594 26.2278 20.5706 24.7886 17.7764 24.7886C14.9822 24.7886 12.7935 26.2278 12.7935 28.0649C12.7935 28.4444 12.8867 28.8151 13.0704 29.1666C13.2654 29.5394 13.7259 29.6838 14.0986 29.4887C14.4716 29.2937 14.6158 28.8334 14.4208 28.4604C14.3511 28.3273 14.3173 28.1979 14.3173 28.0649C14.3173 27.2361 15.7379 26.3125 17.7763 26.3125C19.8148 26.3125 21.2354 27.236 21.2354 28.0649C21.2354 28.8939 19.8149 29.8175 17.7764 29.8175Z" fill="black"/>
<path d="M36.0459 33.6358H39.0505C39.4713 33.6358 39.8124 33.2948 39.8124 32.8739C39.8124 32.453 39.4713 32.112 39.0505 32.112H36.0459C35.6251 32.112 35.2839 32.453 35.2839 32.8739C35.2839 33.2948 35.6251 33.6358 36.0459 33.6358Z" fill="black"/>
</svg>
