<svg width="52" height="52" viewBox="0 0 52 52" fill="none" xmlns="http://www.w3.org/2000/svg">
<g clip-path="url(#clip0_637_8830)">
<path d="M6.93716 17.0839C7.21408 12.5124 11.0084 8.89026 15.6493 8.89026C19.3925 8.89026 22.5849 11.2464 23.8255 14.5563C27.0489 14.5952 29.6503 17.2188 29.6503 20.4513C29.6503 23.7081 27.01 26.3483 23.7533 26.3483C22.3897 26.3483 8.49988 26.3483 7.09903 26.3483C4.53934 26.3483 2.46484 24.2734 2.46484 21.7141C2.46484 19.2088 4.45285 17.1692 6.93716 17.0839Z" fill="#F0F5F7"/>
<path d="M29.6503 20.4518C29.6503 22.8079 28.2673 24.8419 26.2694 25.7858C26.6292 25.0229 26.8312 24.1699 26.8312 23.2697C26.8312 20.0372 24.2302 17.4136 21.0068 17.3751C19.7658 14.0644 16.5742 11.7083 12.8306 11.7083C11.1425 11.7083 9.56674 12.1875 8.23096 13.0175C9.77145 10.5395 12.5176 8.88989 15.6498 8.88989C19.3925 8.88989 22.585 11.2461 23.8252 14.556C27.0486 14.5952 29.6503 17.2188 29.6503 20.4518Z" fill="#DDE9ED"/>
<path d="M46.2054 28.1145C45.894 22.9702 41.6244 18.8942 36.4019 18.8942C32.1894 18.8942 28.5974 21.5455 27.2013 25.2704C23.574 25.314 20.647 28.2665 20.647 31.9041C20.647 35.5691 23.6177 38.5398 27.2827 38.5398H46.0233C48.9036 38.5398 51.2383 36.205 51.2383 33.3248C51.2383 30.5056 49.0012 28.2105 46.2054 28.1145Z" fill="#C4E1E8"/>
<path d="M51.2386 33.3248C51.2386 36.2046 48.9035 38.5402 46.0233 38.5402H45.619C45.9975 37.8181 46.2113 36.9961 46.2113 36.1249C46.2113 33.3061 43.9742 31.0107 41.1784 30.9142C40.867 25.7703 36.597 21.6939 31.3741 21.6939C30.6699 21.6939 29.9835 21.7681 29.3218 21.9089C31.1082 20.051 33.6195 18.8942 36.4014 18.8942C41.6243 18.8942 45.8943 22.9698 46.2057 28.1149C49.0015 28.2101 51.2386 30.5056 51.2386 33.3248Z" fill="#A4D5DD"/>
<path d="M43.0218 22.6036C43.0218 29.0608 37.7873 34.2952 31.3302 34.2952C24.873 34.2952 19.6382 29.0608 19.6382 22.6036C19.6382 16.1465 24.873 10.9116 31.3302 10.9116C37.7873 10.9116 43.0218 16.1465 43.0218 22.6036Z" fill="#F6CB43"/>
<path d="M31.3304 34.2952C24.8729 34.2952 19.6384 29.0607 19.6384 22.6036C19.6384 16.9399 23.6652 12.2164 29.0123 11.1421C28.8612 11.8915 28.7822 12.6659 28.7822 13.4598C28.7822 19.9173 34.0163 25.1518 40.4738 25.1518C41.2677 25.1518 42.0425 25.0724 42.7919 24.9213C41.7164 30.2684 36.9925 34.2952 31.3304 34.2952Z" fill="#FAB03C"/>
<path d="M26.3206 28.1145C26.0091 22.9702 21.7391 18.8942 16.5166 18.8942C12.3045 18.8942 8.71216 21.5455 7.31607 25.2704C3.68878 25.314 0.761719 28.2665 0.761719 31.9041C0.761719 35.5691 3.73282 38.5398 7.3974 38.5398H26.1385C29.0183 38.5398 31.3535 36.205 31.3535 33.3248C31.3535 30.5056 29.1163 28.2105 26.3206 28.1145Z" fill="#C4E1E8"/>
<path d="M31.3534 33.3248C31.3534 36.2046 29.0182 38.5402 26.138 38.5402H25.7341C26.1122 37.8181 26.326 36.9961 26.326 36.1249C26.326 33.3061 24.0893 31.0107 21.2935 30.9142C20.9821 25.7703 16.7121 21.6939 11.4892 21.6939C10.785 21.6939 10.0983 21.7681 9.43652 21.9089C11.223 20.051 13.7347 18.8942 16.5165 18.8942C21.7391 18.8942 26.0095 22.9698 26.3209 28.1149C29.1166 28.2101 31.3534 30.5056 31.3534 33.3248Z" fill="#A4D5DD"/>
<path d="M42.0273 37.3496C41.7159 32.2056 37.4459 28.1296 32.2234 28.1296C28.0113 28.1296 24.4189 30.781 23.0229 34.5055C19.396 34.5495 16.4685 37.502 16.4685 41.1396C16.4685 44.8041 19.4396 47.7752 23.1046 47.7752H41.8452C44.7255 47.7752 47.0602 45.4405 47.0602 42.5602C47.0602 39.7411 44.8231 37.446 42.0273 37.3496Z" fill="#F0F5F7"/>
<path d="M47.0604 42.5598C47.0604 45.4401 44.7253 47.7752 41.845 47.7752H41.4412C41.8192 47.0536 42.0335 46.2316 42.0335 45.3604C42.0335 42.5416 39.7963 40.2461 37.0006 40.1497C36.6891 35.0057 32.4192 30.9294 27.1962 30.9294C26.492 30.9294 25.8053 31.0031 25.1436 31.1444C26.9304 29.2861 29.4417 28.1296 32.2236 28.1296C37.4461 28.1296 41.7165 32.2052 42.0279 37.3504C44.8237 37.4456 47.0604 39.7411 47.0604 42.5598Z" fill="#DDE9ED"/>
<path d="M8.53802 40.3219C8.76059 36.6442 11.813 33.7302 15.547 33.7302C18.5582 33.7302 21.1262 35.6258 22.1244 38.2886C24.7174 38.32 26.8105 40.4306 26.8105 43.0311C26.8105 45.6511 24.6865 47.7752 22.0661 47.7752C20.9695 47.7752 9.79526 47.7752 8.66815 47.7752C6.60913 47.7752 4.9397 46.1062 4.9397 44.0468C4.9397 42.0314 6.53931 40.3905 8.53802 40.3219Z" fill="#F0F5F7"/>
<path d="M26.8106 43.0315C26.8106 45.6289 24.7218 47.7391 22.1316 47.774C22.9084 46.929 23.3817 45.8031 23.3817 44.5661C23.3817 41.9659 21.2893 39.8549 18.6955 39.8232C17.6978 37.1607 15.1297 35.2648 12.1182 35.2648C11.7623 35.2648 11.4128 35.2917 11.0708 35.3429C12.2856 34.3356 13.8455 33.7302 15.5467 33.7302C18.5587 33.7302 21.1263 35.6254 22.1245 38.2886C24.7183 38.3204 26.8106 40.4302 26.8106 43.0315Z" fill="#DDE9ED"/>
<path d="M52 33.3248C52 30.316 49.8116 27.838 46.906 27.4135C46.6077 24.9828 45.4786 22.7397 43.6854 21.0381C42.9129 14.9074 37.6666 10.1499 31.33 10.1499C28.5708 10.1499 25.9568 11.0338 23.7704 12.706C22.0553 9.86502 19.0069 8.12854 15.6497 8.12854C14.0914 8.12854 12.5438 8.51614 11.1747 9.24969C10.8037 9.44846 10.6645 9.91025 10.8628 10.2808C11.0616 10.6517 11.5234 10.7914 11.8943 10.5926C13.0428 9.9769 14.3413 9.65158 15.6497 9.65158C18.5574 9.65158 21.1889 11.2036 22.6008 13.7248C21.2246 15.0816 20.1697 16.7526 19.5448 18.5748C18.5836 18.2872 17.5671 18.132 16.5166 18.132C14.3187 18.132 12.2109 18.7997 10.4213 20.0629C8.81094 21.1992 7.56403 22.7373 6.79199 24.5321C6.15366 24.5836 5.53198 24.7173 4.93848 24.926C3.87524 24.2095 3.22659 23.0086 3.22659 21.7137C3.22659 19.6162 4.86786 17.917 6.96338 17.8448C7.35614 17.8313 7.67392 17.5215 7.69772 17.1295C7.80087 15.4244 8.43723 13.8279 9.53735 12.5124C9.80713 12.1895 9.76428 11.709 9.44174 11.4392C9.1188 11.1695 8.63837 11.2123 8.36859 11.5349C7.19904 12.9337 6.46945 14.5996 6.23856 16.3868C3.64713 16.7967 1.70316 19.0195 1.70316 21.7141C1.70316 23.2304 2.3407 24.6551 3.42297 25.6631C2.96237 25.9579 2.53113 26.3058 2.13718 26.7038C0.758942 28.0971 0 29.9438 0 31.9041C0 35.9828 3.31863 39.3015 7.3974 39.3015H7.89966C7.87863 39.4114 7.85959 39.5217 7.84372 39.6328C5.74146 40.0176 4.17834 41.8425 4.17834 44.0468C4.17834 46.5227 6.19254 48.5369 8.66812 48.5369H41.8453C45.141 48.5369 47.8221 45.8554 47.8221 42.5602C47.8221 41.3323 47.4575 40.1933 46.8286 39.2459C49.7442 38.8512 52 36.3474 52 33.3248ZM22.066 47.0135H8.66812C7.03241 47.0135 5.70139 45.6825 5.70139 44.0468C5.70139 42.4404 6.95901 41.1383 8.56418 41.0832C8.95654 41.0697 9.27472 40.7599 9.29813 40.3679C9.38858 38.8766 10.0138 37.463 11.0588 36.3883C11.3524 36.0868 11.3456 35.6044 11.0441 35.3112C10.7426 35.018 10.2602 35.0247 9.96701 35.3263C9.27313 36.0396 8.72961 36.8739 8.3551 37.778H7.3978C4.15851 37.778 1.52344 35.143 1.52344 31.9041C1.52344 28.7049 4.12598 26.0706 7.3252 26.0317C7.6394 26.0281 7.9191 25.8318 8.02939 25.5378C9.34811 22.0196 12.7588 19.6559 16.5166 19.6559C21.2992 19.6559 25.2716 23.3915 25.56 28.1606C25.5838 28.5525 25.9016 28.8624 26.2944 28.8759C26.4372 28.8806 26.5788 28.8937 26.7189 28.912C26.5185 29.0341 26.3214 29.1619 26.1281 29.2984C24.5178 30.4346 23.2709 31.9723 22.4993 33.7675C21.6447 33.8358 20.8211 34.0512 20.0415 34.4066C18.7518 33.4938 17.1879 32.9685 15.547 32.9685C14.7424 32.9685 13.9454 33.0927 13.1781 33.3375C12.7774 33.4656 12.5561 33.8941 12.6842 34.2948C12.812 34.6955 13.2408 34.9168 13.6415 34.7887C14.2588 34.5919 14.8999 34.4919 15.547 34.4919C18.1432 34.4919 20.5002 36.1249 21.411 38.5556C21.5213 38.85 21.801 39.0464 22.1152 39.05C24.2841 39.0761 26.0484 40.8622 26.0484 43.0311C26.0484 45.227 24.2619 47.0135 22.066 47.0135ZM41.8453 47.0135H25.8619C26.9145 46.0098 27.5718 44.5962 27.5718 43.0311C27.5718 40.2048 25.4053 37.8495 22.6461 37.5571C22.3096 36.8112 21.8593 36.1344 21.323 35.5425C21.872 35.3679 22.4433 35.2743 23.0321 35.2672C23.3463 35.2636 23.626 35.0672 23.7363 34.7728C25.055 31.255 28.4657 28.8913 32.2235 28.8913C32.9618 28.8913 33.6961 28.9802 34.4063 29.1555C34.8145 29.2567 35.2275 29.0076 35.3287 28.5989C35.4294 28.1907 35.1803 27.7777 34.7717 27.6765C33.9425 27.4718 33.0852 27.3679 32.2235 27.3679C31.0273 27.3679 29.8582 27.567 28.7521 27.9511C28.2022 27.6829 27.6226 27.5024 27.0208 27.4139C26.5665 23.712 24.2024 20.6199 20.9691 19.1155C22.4525 14.7095 26.6423 11.6733 31.33 11.6733C37.3568 11.6733 42.2599 16.5765 42.2599 22.6036C42.2599 25.4065 41.2114 28.0479 39.3007 30.0815C38.9714 29.7863 38.6219 29.509 38.2526 29.2527C37.907 29.0123 37.4325 29.098 37.1925 29.444C36.9525 29.7891 37.0382 30.264 37.3837 30.504C39.6832 32.1005 41.0987 34.6125 41.2669 37.3956C41.2907 37.788 41.6085 38.0974 42.0013 38.1109C44.411 38.1938 46.2986 40.1481 46.2986 42.5602C46.2986 45.0156 44.3007 47.0135 41.8453 47.0135ZM46.0233 37.778H45.5004C45.4821 37.778 45.4643 37.7796 45.4464 37.7808C44.6693 37.1964 43.7425 36.7973 42.7281 36.649C42.4793 34.6122 41.6537 32.7245 40.3608 31.1785C42.3821 29.0524 43.5683 26.334 43.7564 23.4228C44.7518 24.8022 45.3409 26.4364 45.4453 28.1606C45.4691 28.5525 45.7868 28.8624 46.1796 28.8759C48.5889 28.9588 50.4766 30.9131 50.4766 33.3248C50.4766 35.7805 48.479 37.778 46.0233 37.778Z" fill="black"/>
<path d="M46.3372 22.6036C46.3372 23.0242 46.6783 23.3654 47.0989 23.3654H49.6169C50.0378 23.3654 50.3786 23.0242 50.3786 22.6036C50.3786 22.1831 50.0378 21.8419 49.6169 21.8419H47.0989C46.6783 21.8419 46.3372 22.1831 46.3372 22.6036Z" fill="black"/>
<path d="M44.987 15.4807C45.1159 15.4807 45.2469 15.4482 45.3671 15.3788L47.5479 14.1195C47.9121 13.9093 48.0371 13.4435 47.8268 13.0793C47.6161 12.7147 47.1504 12.5902 46.7862 12.8004L44.6054 14.0592C44.2412 14.2699 44.1162 14.7357 44.3265 15.0999C44.4677 15.3442 44.7236 15.4807 44.987 15.4807Z" fill="black"/>
<path d="M38.8334 9.60681C38.9536 9.67624 39.0845 9.70917 39.2135 9.70917C39.4769 9.70917 39.7328 9.57269 39.874 9.32831L41.1332 7.14749C41.3435 6.7829 41.2185 6.31714 40.8543 6.10687C40.4897 5.89621 40.024 6.02118 39.8137 6.38577L38.5545 8.56659C38.3442 8.93079 38.4692 9.39654 38.8334 9.60681Z" fill="black"/>
<path d="M31.3301 7.59656C31.7506 7.59656 32.0918 7.25537 32.0918 6.83484V4.31641C32.0918 3.89587 31.7506 3.55469 31.3301 3.55469C30.9091 3.55469 30.5684 3.89587 30.5684 4.31641V6.83444C30.5684 7.25537 30.9091 7.59656 31.3301 7.59656Z" fill="black"/>
<path d="M22.7858 9.32831C22.927 9.57269 23.1829 9.70917 23.4464 9.70917C23.5757 9.70917 23.7066 9.67624 23.8264 9.60681C24.1906 9.39654 24.3156 8.93079 24.1053 8.56659L22.8461 6.38577C22.6358 6.02118 22.1701 5.89621 21.8059 6.10687C21.4413 6.31714 21.3167 6.7829 21.527 7.14749L22.7858 9.32831Z" fill="black"/>
<path d="M39.3205 35.1188C39.1535 34.7328 38.7052 34.5551 38.3192 34.7221C37.9328 34.8891 37.7554 35.3374 37.9225 35.7234C38.072 36.0702 38.1926 36.4316 38.2807 36.7978C38.3648 37.1473 38.6766 37.3818 39.021 37.3818C39.0797 37.3818 39.1396 37.375 39.1995 37.3607C39.6086 37.2623 39.8605 36.8509 39.7621 36.4419C39.6538 35.9904 39.505 35.5453 39.3205 35.1188Z" fill="black"/>
<path d="M37.7145 32.7051C36.1562 31.0813 34.0618 30.1871 31.8171 30.1871C31.3966 30.1871 31.0554 30.5283 31.0554 30.9488C31.0554 31.3693 31.3966 31.7105 31.8171 31.7105C33.6429 31.7105 35.3468 32.4385 36.6156 33.76C36.7651 33.9159 36.9651 33.9945 37.165 33.9945C37.3551 33.9945 37.5451 33.9239 37.6927 33.7822C37.9962 33.491 38.0061 33.0086 37.7145 32.7051Z" fill="black"/>
</g>
<defs>
<clipPath id="clip0_637_8830">
<rect width="52" height="52" fill="white"/>
</clipPath>
</defs>
</svg>
